<?xml version="1.0" standalone="no"?>
<!DOCTYPE svg PUBLIC "-//W3C//DTD SVG 20010904//EN"
 "http://www.w3.org/TR/2001/REC-SVG-20010904/DTD/svg10.dtd">
<svg version="1.0" xmlns="http://www.w3.org/2000/svg"
 width="638.000000pt" height="680.000000pt" viewBox="0 0 638.000000 680.000000"
 preserveAspectRatio="xMidYMid meet">

<g transform="translate(0.000000,680.000000) scale(0.100000,-0.100000)"
fill="#000000" stroke="none">
<path d="M1110 6783 c-14 -7 -19 -13 -11 -13 9 0 4 -9 -13 -25 -90 -84 -42
-265 89 -332 41 -21 41 -20 20 -43 -22 -24 -27 -24 -93 -5 -85 26 -146 91
-163 175 -6 33 -7 33 -8 6 -3 -76 85 -173 179 -197 49 -13 60 -22 40 -34 -13
-8 -152 -182 -176 -220 -10 -16 -31 -46 -46 -65 -34 -44 -128 -242 -135 -285
-5 -31 -2 -35 55 -74 34 -22 68 -51 76 -63 13 -18 16 -19 16 -5 0 9 5 17 12
17 6 0 3 9 -7 20 -16 17 -17 25 -7 59 12 39 80 111 105 111 7 0 21 -15 31 -32
9 -18 14 -24 11 -13 -4 11 -7 24 -8 30 -1 5 17 18 41 29 23 11 42 25 42 31 0
12 -156 161 -187 178 -11 7 -11 12 -3 22 10 12 27 1 93 -58 45 -40 96 -83 112
-97 22 -19 37 -48 58 -113 16 -49 31 -86 34 -84 2 3 -5 33 -18 67 -19 52 -20
63 -8 71 20 12 79 23 86 15 4 -3 12 -32 18 -63 l11 -56 34 44 c27 35 28 39 8
21 l-26 -24 -12 37 c-38 115 44 220 118 153 14 -13 22 -17 18 -10 -4 6 -3 12
3 12 10 0 28 -26 30 -42 1 -5 4 -7 7 -5 3 1 10 -6 15 -15 14 -26 25 -22 39 12
15 36 93 108 127 116 88 23 128 -75 83 -203 -11 -31 -18 -59 -15 -61 5 -5 6
-3 30 67 25 71 18 154 -17 190 -18 20 -18 21 0 21 25 0 47 -26 62 -73 15 -49
0 -135 -37 -209 -30 -61 -111 -151 -129 -144 -6 2 -11 -3 -10 -12 0 -9 -5 -16
-12 -14 -8 1 -11 -2 -8 -7 3 -5 -1 -14 -9 -21 -11 -9 -20 -8 -44 10 -17 11
-35 29 -41 38 -8 14 -9 15 -10 1 0 -8 14 -25 30 -37 17 -13 30 -30 30 -38 0
-9 -40 -57 -88 -107 -48 -51 -100 -108 -115 -127 -24 -32 -27 -33 -27 -12 0
32 0 34 -21 74 -10 20 -37 56 -59 79 -22 23 -40 52 -41 63 0 18 -1 18 -7 4 -6
-16 -9 -16 -39 3 -18 12 -33 29 -33 39 0 10 -6 23 -14 29 -19 16 -56 -2 -56
-26 0 -15 2 -14 14 2 15 21 46 14 46 -10 0 -14 -19 -20 -45 -15 -6 1 -5 -3 1
-10 6 -6 21 -12 33 -13 11 -1 21 -7 21 -13 0 -7 7 -14 15 -18 8 -3 15 -17 15
-31 0 -14 5 -25 11 -25 5 0 7 -4 4 -10 -3 -5 -1 -10 5 -10 7 0 9 8 5 20 -15
46 29 10 79 -65 33 -50 34 -92 4 -105 -15 -6 -17 -9 -7 -9 18 -1 49 29 49 48
0 27 -35 79 -93 139 -68 69 -62 85 8 21 57 -52 82 -94 91 -147 8 -50 -6 -72
-45 -72 -24 0 -80 29 -58 30 5 0 1 10 -7 22 -22 31 -20 36 9 30 15 -2 25 0 25
8 0 7 -8 9 -22 5 -17 -6 -20 -4 -14 11 6 18 6 18 -8 1 -14 -18 -16 -16 -27 23
-7 24 -15 38 -17 32 -1 -5 4 -27 13 -48 8 -20 13 -39 10 -42 -6 -6 -34 59 -41
97 -5 23 -11 28 -37 28 -31 1 -31 0 -7 -8 19 -7 32 -27 53 -79 18 -43 41 -80
63 -99 52 -46 53 -44 -76 -292 -10 -19 -31 -41 -45 -47 -30 -14 -69 -7 -59 10
4 7 -46 -14 -63 -26 -8 -6 115 1 126 8 10 6 12 4 8 -10 -3 -11 -8 -34 -12 -51
-4 -18 -10 -33 -15 -33 -4 0 -29 -19 -55 -42 -63 -57 -73 -62 -93 -46 -15 12
-16 11 -3 -5 12 -16 11 -21 -15 -50 l-29 -32 32 29 31 28 37 -27 c20 -16 34
-34 31 -41 -3 -8 0 -11 8 -8 18 7 128 -86 121 -103 -14 -36 -15 -45 0 -20 l16
27 39 -22 c22 -13 43 -31 46 -42 9 -27 -16 -138 -30 -132 -129 54 -126 51
-101 96 8 14 14 30 14 35 0 6 -9 -7 -20 -28 -13 -25 -25 -37 -35 -33 -10 4 -9
-5 7 -35 11 -23 23 -38 27 -35 3 4 0 12 -6 18 -27 27 -8 26 53 -4 l64 -32 -6
-45 c-3 -25 -15 -56 -25 -68 l-20 -22 -49 31 c-41 25 -49 35 -49 59 0 31 9 36
28 17 6 -6 13 -10 16 -7 2 2 -15 17 -38 33 -22 16 -34 21 -26 11 13 -16 15
-52 4 -64 -4 -4 -151 105 -158 118 -4 6 29 89 39 100 9 8 75 -50 76 -67 0 -11
2 -13 6 -4 3 8 -27 44 -69 85 -74 72 -97 114 -75 136 6 6 -1 5 -15 -1 -15 -7
-24 -16 -22 -20 3 -4 -7 -25 -22 -45 l-26 -38 25 27 c31 33 44 30 86 -22 l31
-39 -23 -49 -23 -50 -25 19 c-13 11 -37 29 -54 40 l-30 21 25 -24 c14 -12 38
-33 53 -44 26 -21 27 -23 12 -63 -7 -22 -17 -67 -21 -100 -6 -53 -8 -58 -21
-45 -17 17 -38 5 -48 -27 -9 -26 -25 -24 -72 10 -30 22 -40 35 -38 53 1 13 0
15 -2 4 -4 -16 -8 -15 -36 10 l-31 29 34 -40 c31 -37 74 -74 108 -94 11 -6 12
-16 5 -42 -12 -43 1 -95 27 -112 14 -8 20 -23 20 -48 0 -43 30 -79 67 -79 21
0 23 -2 13 -15 -15 -18 -24 -135 -11 -155 9 -13 14 -12 38 6 15 12 38 36 51
54 12 18 23 27 23 19 1 -8 5 22 9 67 5 57 15 96 34 134 24 47 24 52 7 36 -23
-21 -51 -107 -51 -158 -1 -32 -1 -32 -17 -13 -11 15 -14 15 -10 3 3 -9 -1 -24
-8 -35 -8 -10 -14 -22 -14 -28 -1 -5 8 1 19 15 23 30 27 14 4 -18 -12 -17 -18
-19 -28 -10 -11 11 -11 17 2 37 16 23 16 24 -5 13 -17 -9 -22 -9 -27 4 -4 10
-2 13 6 8 8 -5 9 -2 5 9 -4 10 1 21 12 29 18 13 45 87 36 97 -3 2 -5 -1 -5 -8
0 -7 -4 -10 -9 -7 -4 3 -6 -6 -3 -19 6 -32 -34 -53 -67 -36 -12 7 -26 9 -31 6
-19 -12 -10 5 17 30 15 14 37 25 47 25 15 0 17 3 9 11 -7 7 -17 8 -28 2 -28
-16 -65 -4 -61 20 4 27 19 32 36 12 7 -8 17 -15 23 -15 5 0 -2 9 -16 20 -14
11 -31 20 -39 20 -10 0 -13 12 -11 41 1 23 4 43 7 46 2 2 20 -12 40 -31 19
-20 33 -29 29 -20 -5 15 -3 15 25 0 16 -8 39 -27 50 -41 l20 -25 21 26 c26 33
26 48 1 84 -19 27 -18 60 1 60 5 0 12 0 16 0 4 0 8 -6 9 -13 3 -36 7 -40 15
-17 7 19 8 15 4 -17 -5 -43 3 -54 23 -30 6 8 7 34 1 76 -5 35 -7 66 -4 69 2 3
26 -9 52 -26 l47 -31 67 62 c37 34 67 65 68 70 0 4 -8 7 -18 7 -46 0 -50 7
-35 62 17 68 32 83 67 67 15 -7 25 -15 22 -18 -2 -4 5 -7 15 -7 25 0 16 12
-23 32 -18 9 -35 21 -39 27 -6 10 34 113 51 130 5 5 21 1 35 -8 14 -10 26 -13
26 -9 0 5 -10 14 -22 19 -16 7 -22 18 -21 35 3 24 2 24 -11 6 -9 -11 -20 -15
-28 -10 -11 6 -11 5 0 -8 10 -13 8 -25 -13 -69 -13 -29 -32 -56 -42 -60 -18
-6 -93 29 -93 44 0 5 12 28 26 53 14 24 24 44 21 44 -3 0 -17 -20 -32 -45
l-26 -45 -30 17 c-16 10 -44 32 -61 50 -30 31 -31 34 -15 51 9 10 17 22 17 26
0 4 -10 -4 -22 -18 l-23 -25 -34 29 -33 28 37 34 c49 43 60 49 78 42 21 -8 29
-45 14 -63 -10 -12 -9 -13 1 -7 9 5 22 0 37 -14 13 -12 41 -24 64 -27 26 -4
38 -10 34 -17 -4 -7 -1 -6 8 1 13 10 19 10 35 -2 10 -8 24 -14 29 -14 6 -1 -1
8 -14 18 l-25 19 37 16 c20 8 52 26 70 40 19 14 36 24 39 21 3 -3 13 6 22 20
10 15 23 24 31 21 9 -3 12 0 8 10 -3 7 0 14 6 14 6 0 17 16 25 35 8 19 20 35
25 35 14 0 14 -5 -4 -43 -8 -18 -10 -24 -3 -13 61 90 74 68 20 -34 -59 -111
-52 -113 10 -2 29 50 60 93 68 93 8 1 -18 5 -59 9 -64 7 -77 12 -108 42 -60
56 -78 126 -49 193 l12 30 7 -32 c4 -23 17 -39 39 -53 42 -25 48 -25 48 3 0
24 77 193 85 186 2 -3 0 -22 -5 -44 -12 -51 -12 -136 -1 -154 13 -20 107 1
142 32 14 12 19 18 12 13 -24 -16 -23 -1 2 37 14 20 25 37 25 39 0 2 -30 -25
-67 -59 -63 -58 -105 -85 -71 -45 8 9 20 44 27 77 22 104 135 290 261 429 61
68 58 67 -53 -23 -43 -35 -108 -99 -144 -142 -36 -43 -68 -79 -70 -79 -10 0
43 65 115 141 183 195 439 372 599 413 82 21 82 21 26 -22 -26 -21 -55 -47
-63 -57 -8 -11 17 7 57 39 48 38 95 66 140 82 37 13 67 28 65 34 -1 6 8 14 20
19 13 5 34 21 47 35 14 14 29 26 35 26 6 0 -10 -21 -35 -47 -25 -27 -51 -57
-59 -68 -7 -11 12 6 42 38 30 31 60 57 66 57 6 0 23 5 39 11 27 10 27 11 9 25
-19 13 -19 14 5 14 14 0 30 -5 37 -12 7 -7 32 -11 57 -9 51 3 85 -5 85 -21 0
-6 -20 -38 -44 -72 -24 -33 -46 -72 -50 -86 -5 -18 -1 -15 13 10 26 48 131
165 150 167 9 1 34 9 56 17 27 10 81 16 170 17 108 1 122 3 80 10 -27 5 -65 6
-82 3 -18 -4 -33 -3 -33 1 0 4 21 30 46 59 90 98 106 173 51 229 -75 75 -224
74 -423 -3 l-75 -29 -9 23 c-4 12 -19 35 -33 52 -14 16 -32 46 -41 67 -9 22
-27 52 -41 69 -14 16 -39 74 -56 129 l-31 99 -49 0 c-32 0 -49 -4 -49 -12 0
-24 32 -153 52 -211 11 -32 18 -61 15 -63 -9 -9 -97 234 -97 268 0 17 -14 18
-226 18 l-225 0 57 -107 c32 -60 90 -163 130 -230 40 -67 69 -124 66 -127 -11
-12 -20 -5 -33 27 -12 30 -58 114 -188 339 l-56 98 -71 0 c-81 0 -84 -3 -84
-78 1 -155 107 -375 252 -522 96 -97 180 -159 294 -216 102 -51 120 -68 60
-57 -172 30 -395 159 -536 309 -156 165 -231 311 -255 501 -4 29 -11 55 -16
59 -5 3 -7 -1 -4 -8 3 -7 1 -18 -3 -23 -8 -12 -67 -55 -75 -55 -3 0 -1 19 4
41 13 57 4 61 -10 4 -7 -29 -17 -45 -26 -45 -9 0 -25 -16 -36 -35 -12 -19 -22
-35 -24 -35 -1 0 2 20 7 45 6 30 6 59 0 83 -9 34 -10 31 -11 -35 -1 -40 -5
-73 -10 -73 -5 0 -15 25 -22 55 -7 31 -18 63 -25 73 -10 12 -9 3 2 -33 15 -50
13 -96 -8 -147 -10 -27 -14 -30 -39 -32 -5 -1 -21 25 -34 57 -23 57 -99 167
-116 167 -5 0 9 -24 31 -52 23 -29 54 -81 70 -114 54 -112 33 -143 -41 -63
-52 56 -112 154 -124 201 -7 29 -24 32 -65 11z m8 -139 c15 -28 117 -121 153
-140 16 -8 29 -18 29 -22 0 -5 -16 -23 -35 -42 l-35 -34 -44 22 c-54 26 -123
108 -132 158 -8 46 1 100 23 133 l18 26 5 -40 c3 -22 11 -50 18 -61z m88 28
c15 -26 35 -56 45 -67 15 -17 16 -23 5 -44 l-13 -23 -57 53 c-63 60 -80 104
-51 133 21 21 34 12 71 -52z m354 -18 c0 -8 13 -32 28 -52 16 -20 55 -73 88
-117 32 -44 112 -147 177 -229 86 -107 116 -151 108 -159 -7 -7 -14 -7 -19 -1
-5 5 -40 50 -79 99 -64 82 -101 129 -279 363 -31 39 -61 72 -66 72 -6 0 -3 9
7 20 22 24 35 26 35 4z m-260 -409 c25 -27 78 -90 119 -140 40 -49 94 -109
119 -132 25 -23 43 -46 39 -49 -4 -4 -29 14 -56 39 -33 31 -59 47 -76 47 -14
0 -25 5 -25 10 0 12 -138 179 -206 250 -43 44 -43 46 -28 69 l17 23 26 -33
c14 -19 46 -56 71 -84z m-206 -137 c14 -16 18 -56 5 -63 -5 -4 -9 1 -9 10 0
10 -6 15 -13 12 -10 -4 -12 3 -9 24 5 32 8 35 26 17z m-47 -61 c1 -11 1 -18 0
-16 -2 2 -8 11 -15 20 -9 12 -9 16 1 16 7 0 14 -9 14 -20z m1083 -132 c-21
-25 -209 -175 -220 -175 -24 0 -4 22 82 86 127 95 162 118 138 89z m-895 -54
c3 -5 1 -12 -5 -16 -5 -3 -10 1 -10 9 0 18 6 21 15 7z m-276 -81 c11 0 11 -3
1 -15 -10 -12 -19 -8 -64 28 -28 23 -53 43 -55 44 -1 1 0 6 4 12 4 7 25 -4 54
-29 26 -22 53 -40 60 -40z m901 -69 c0 -12 -20 -25 -27 -18 -7 7 6 27 18 27 5
0 9 -4 9 -9z m-50 -51 c0 -5 -5 -10 -11 -10 -5 0 -7 5 -4 10 3 6 8 10 11 10 2
0 4 -4 4 -10z m-270 -267 c-1 -13 -109 -127 -115 -121 -6 6 53 80 87 108 26
22 28 23 28 13z m-280 -108 c14 -19 14 -19 -2 -6 -10 7 -18 18 -18 24 0 6 1 8
3 6 1 -2 9 -13 17 -24z m490 -185 c-6 -11 -18 -20 -28 -20 -14 1 -13 4 7 20
29 25 34 25 21 0z m-610 -310 c0 -5 -4 -10 -10 -10 -5 0 -10 5 -10 10 0 6 5
10 10 10 6 0 10 -4 10 -10z m-127 -487 c40 -32 74 -59 76 -60 3 -2 -5 -13 -16
-26 -27 -29 -51 -78 -61 -121 l-7 -35 -54 50 -54 50 7 61 c6 58 25 138 33 138
2 0 36 -26 76 -57z m297 -13 c13 -8 11 -14 -12 -37 -27 -26 -28 -27 -28 -6 0
26 10 53 19 53 3 0 13 -5 21 -10z m-450 -135 c-7 -9 -15 -13 -17 -11 -6 6 20
36 26 30 2 -2 -2 -10 -9 -19z m34 -51 c5 -14 4 -15 -9 -4 -17 14 -19 20 -6 20
5 0 12 -7 15 -16z m66 -38 c0 -12 -43 18 -48 34 -3 8 5 6 21 -6 15 -10 27 -23
27 -28z m-124 6 c-9 -9 -37 8 -31 18 5 8 11 7 21 -1 8 -6 12 -14 10 -17z m214
-2 c8 -15 8 -20 -3 -20 -7 0 -13 9 -14 20 -1 11 0 20 2 20 2 0 9 -9 15 -20z
m-163 -146 c-3 -3 -12 -4 -19 -1 -8 3 -5 6 6 6 11 1 17 -2 13 -5z m43 -224 c0
-5 -5 -10 -11 -10 -5 0 -7 5 -4 10 3 6 8 10 11 10 2 0 4 -4 4 -10z"/>
<path d="M995 6729 c-36 -32 -65 -77 -65 -101 0 -7 9 5 19 27 18 40 48 73 86
93 11 6 15 12 8 12 -7 0 -28 -14 -48 -31z"/>
<path d="M4789 6397 c-10 -11 -18 -12 -31 -3 -26 16 -64 -25 -103 -109 -57
-122 -69 -224 -33 -270 42 -54 122 -14 168 85 13 28 29 50 37 50 14 0 14 -2
-12 -105 -9 -34 -9 -54 -3 -63 21 -25 35 1 68 126 9 35 15 42 35 42 13 0 26
-4 29 -9 3 -5 -6 -41 -19 -82 -29 -83 -30 -99 -11 -99 15 0 53 91 62 151 6 36
9 39 38 39 46 0 76 11 76 26 0 10 -13 14 -45 14 l-44 0 6 33 c10 56 30 94 62
118 33 25 32 39 -3 39 -29 0 -46 -25 -78 -115 -21 -56 -30 -71 -51 -76 -14 -4
-28 -5 -30 -3 -2 3 10 46 27 97 26 75 35 91 50 89 14 -3 17 1 12 13 -3 9 -6
19 -6 21 0 2 -9 4 -20 4 -26 0 -49 -37 -86 -139 -18 -53 -36 -87 -46 -89 -14
-3 -14 3 -1 59 8 34 13 85 11 113 -3 44 -6 51 -25 54 -11 2 -27 -3 -34 -11z
m22 -98 l-9 -34 -1 42 c-1 23 2 50 7 60 12 29 15 -28 3 -68z m-22 -63 c12 -14
10 -26 -14 -91 -38 -106 -106 -158 -135 -104 -27 50 51 301 99 317 9 3 11 0 7
-9 -4 -8 -1 -6 6 4 11 15 14 10 18 -41 3 -33 11 -66 19 -76z"/>
<path d="M5338 6243 c-39 -45 -128 -251 -128 -297 0 -75 65 -101 116 -47 l27
29 19 -24 c11 -13 27 -24 37 -24 25 0 66 47 92 104 27 62 59 173 51 180 -14
14 -22 1 -46 -71 -30 -87 -76 -178 -91 -178 -17 0 -17 77 0 122 16 42 14 80
-4 69 -5 -3 -25 -41 -45 -83 -21 -43 -47 -88 -58 -100 -29 -31 -54 -29 -61 2
-6 32 38 159 86 250 35 66 38 105 5 68z"/>
<path d="M5770 6146 c0 -11 -6 -27 -13 -35 -7 -9 -35 -62 -62 -118 -36 -76
-46 -106 -38 -114 9 -9 21 4 50 50 36 57 63 82 48 44 -3 -10 -10 -37 -14 -61
-7 -34 -5 -47 9 -64 l17 -22 28 28 c30 31 26 49 -5 21 -28 -25 -34 -13 -21 39
17 67 14 97 -8 103 -18 5 -18 7 6 59 18 40 22 58 14 71 -10 17 -10 17 -11 -1z"/>
<path d="M5679 6129 c-9 -13 -26 -43 -38 -66 -15 -31 -28 -43 -44 -44 -19 0
-20 -2 -6 -11 15 -10 14 -15 -3 -60 -21 -57 -22 -68 -5 -68 7 0 24 25 36 56
17 39 31 58 50 65 23 10 24 12 9 23 -15 11 -15 15 3 56 24 53 22 87 -2 49z"/>
<path d="M3411 6086 c2 -2 24 -6 49 -9 181 -22 353 -71 517 -147 235 -110 396
-266 511 -496 36 -70 126 -304 136 -351 4 -18 11 -33 15 -33 4 0 6 -15 5 -32
-3 -31 -3 -32 4 -5 l7 28 50 -62 c28 -34 68 -71 90 -83 22 -12 42 -22 45 -24
10 -7 -27 -22 -56 -22 -40 0 -94 19 -94 33 0 6 -2 8 -5 6 -2 -3 3 -43 11 -89
8 -47 21 -140 29 -207 8 -67 21 -136 29 -155 l15 -33 -5 30 c-2 17 -18 114
-34 217 -36 224 -35 211 -11 198 28 -15 97 -12 130 5 31 15 41 34 41 68 -1 18
-3 16 -15 -10 -13 -30 -16 -32 -44 -22 -42 15 -113 80 -149 136 -26 41 -30 55
-25 91 6 44 -14 82 -43 82 -18 0 -41 43 -25 48 6 2 11 8 11 13 0 6 -4 8 -9 5
-5 -4 -18 13 -29 36 -73 159 -99 209 -140 271 -97 148 -225 259 -405 351 -104
53 -282 117 -363 131 -21 4 -71 13 -111 21 -67 13 -142 19 -132 10z m1229
-917 c6 -11 9 -30 7 -42 -3 -19 -6 -17 -20 15 -20 43 -20 48 -7 48 5 0 14 -9
20 -21z"/>
<path d="M5559 6070 c-10 -11 -13 -24 -8 -36 6 -18 7 -18 14 -1 4 9 15 17 24
17 10 0 12 3 5 8 -6 4 -13 12 -15 17 -2 7 -10 4 -20 -5z"/>
<path d="M5513 5966 c-16 -34 -12 -73 7 -61 10 6 40 70 40 86 0 23 -32 5 -47
-25z"/>
<path d="M5041 5975 c0 -5 4 -28 9 -49 9 -40 -4 -74 -40 -103 -8 -7 -10 -13
-4 -13 6 0 17 7 24 15 19 23 58 18 85 -11 14 -15 25 -32 25 -37 0 -6 2 -8 5
-5 3 2 -1 26 -9 53 -13 41 -13 53 -1 82 8 18 19 33 26 33 7 0 9 3 6 7 -4 3
-16 -2 -27 -12 -17 -15 -24 -16 -49 -6 -16 7 -33 22 -39 34 -6 12 -11 18 -11
12z"/>
<path d="M2728 5950 c38 -23 72 -75 72 -110 0 -19 3 -21 9 -11 19 29 -63 141
-102 141 -7 0 3 -9 21 -20z"/>
<path d="M2842 5935 c0 -16 2 -22 5 -12 2 9 2 23 0 30 -3 6 -5 -1 -5 -18z"/>
<path d="M3128 5923 c7 -3 16 -2 19 1 4 3 -2 6 -13 5 -11 0 -14 -3 -6 -6z"/>
<path d="M3050 5900 c-19 -11 -30 -19 -25 -19 6 0 26 8 45 19 19 11 31 19 25
19 -5 0 -26 -8 -45 -19z"/>
<path d="M3250 5910 c8 -5 26 -10 40 -10 83 -1 219 -80 345 -199 38 -36 54
-49 35 -27 -116 128 -207 195 -309 226 -68 21 -138 28 -111 10z"/>
<path d="M4452 5894 c-12 -8 -22 -22 -22 -30 0 -12 5 -11 26 5 24 19 28 19 62
5 21 -8 40 -18 44 -22 4 -4 -4 -43 -17 -87 -26 -84 -30 -121 -16 -144 12 -18
15 -11 47 108 l27 103 35 -6 c19 -3 37 -8 40 -11 3 -3 -6 -47 -21 -98 -31
-108 -32 -117 -12 -117 8 0 15 5 15 11 0 22 43 108 57 113 12 5 13 -5 7 -63
-5 -59 -4 -69 11 -75 11 -4 25 0 34 8 15 14 19 13 34 -4 20 -24 35 -25 65 -4
20 14 22 14 22 -4 0 -21 25 -36 41 -26 5 3 7 21 3 39 -3 19 -1 50 6 69 13 41
6 63 -15 46 -8 -6 -16 -23 -20 -38 -6 -28 -62 -75 -77 -66 -16 10 -7 34 22 61
17 14 30 35 30 45 0 30 -31 18 -57 -22 -27 -43 -64 -80 -73 -75 -4 2 -3 28 0
57 10 72 -8 106 -39 76 -20 -20 -4 51 20 84 26 37 25 39 -18 33 -59 -8 -103 4
-103 26 0 21 -11 24 -26 9 -8 -8 -19 -8 -38 0 -38 14 -68 13 -94 -6z"/>
<path d="M3350 5834 c32 -35 80 -106 115 -171 32 -62 61 -110 63 -108 6 5 -84
169 -129 237 -21 31 -53 67 -71 79 -25 18 -20 9 22 -37z"/>
<path d="M570 5865 c0 -8 5 -15 10 -15 6 0 10 7 10 15 0 8 -4 15 -10 15 -5 0
-10 -7 -10 -15z"/>
<path d="M2973 5870 c-34 -14 -28 -21 7 -9 17 6 30 13 30 15 0 6 -12 4 -37 -6z"/>
<path d="M2751 5830 c14 -31 19 -36 19 -24 0 6 -7 19 -16 30 -14 18 -14 18 -3
-6z"/>
<path d="M1460 5785 c13 -14 26 -25 28 -25 3 0 -5 11 -18 25 -13 14 -26 25
-28 25 -3 0 5 -11 18 -25z"/>
<path d="M4946 5784 c-17 -12 -17 -14 -2 -29 9 -9 16 -12 16 -6 0 6 7 11 15
11 18 0 19 7 2 24 -11 11 -16 11 -31 0z"/>
<path d="M1490 5741 c0 -6 4 -13 10 -16 6 -3 7 1 4 9 -7 18 -14 21 -14 7z"/>
<path d="M1760 5735 c-7 -9 -11 -17 -9 -20 3 -2 10 5 17 15 14 24 10 26 -8 5z"/>
<path d="M2269 5723 l-24 -28 28 24 c25 23 32 31 24 31 -2 0 -14 -12 -28 -27z"/>
<path d="M4110 5714 c-21 -19 -52 -55 -67 -80 -15 -24 -31 -44 -34 -44 -3 0
-13 15 -23 33 -9 17 -14 23 -10 12 19 -58 16 -59 -32 -13 -95 92 -144 117
-158 82 -11 -29 -6 -144 8 -177 7 -18 23 -42 35 -54 11 -12 21 -29 21 -37 0
-17 30 -36 57 -36 15 0 18 -8 17 -55 -1 -31 4 -62 11 -72 13 -17 15 -17 39 6
15 14 31 42 38 63 13 44 18 46 44 17 13 -15 15 -23 7 -26 -7 -2 -9 -11 -6 -19
6 -16 -13 -20 -20 -4 -3 6 -4 5 -3 -2 4 -21 27 -21 33 1 6 25 7 25 39 4 21
-13 27 -14 34 -3 9 15 1 91 -11 104 -4 5 -1 19 8 32 8 13 12 28 8 34 -4 6 3
30 14 53 23 47 37 150 27 191 -9 35 -29 33 -76 -10z m55 6 c-4 -6 -2 -17 4
-24 8 -10 7 -17 -4 -26 -13 -11 -14 -10 -9 6 6 16 3 15 -19 -5 -15 -14 -27
-32 -27 -40 1 -13 3 -12 15 3 8 11 18 16 22 13 6 -7 -25 -36 -39 -37 -5 0 -8
10 -8 23 0 27 28 70 41 62 5 -4 9 3 9 14 0 12 5 21 11 21 5 0 7 -5 4 -10z
m-351 -36 c3 -8 2 -12 -4 -9 -6 3 -10 10 -10 16 0 14 7 11 14 -7z m-4 -45 c0
-6 -4 -7 -10 -4 -5 3 -10 11 -10 16 0 6 5 7 10 4 6 -3 10 -11 10 -16z m155
-63 c26 -34 36 -71 13 -48 -7 7 -17 12 -23 12 -5 0 -3 -5 5 -10 13 -8 12 -10
-2 -10 -10 0 -18 -4 -18 -10 0 -5 -8 -10 -18 -10 -10 0 -23 -5 -30 -12 -9 -9
-16 -8 -29 5 -16 16 -15 17 27 18 44 1 44 1 15 11 -55 19 -70 48 -26 48 14 0
18 7 16 28 -1 16 -6 35 -10 42 -16 26 55 -31 80 -64z m116 26 c-7 -17 -23 -40
-37 -53 -22 -20 -24 -21 -24 -4 0 27 53 106 64 95 5 -5 4 -21 -3 -38z m83 -2
c-2 -45 -3 -45 -18 -24 -8 10 -18 16 -22 11 -4 -4 -2 -7 4 -7 7 0 12 -5 12
-11 0 -11 -89 -54 -97 -46 -8 9 51 67 87 86 19 10 35 19 35 20 0 0 -1 -12 -1
-29z m-348 -27 c-7 -7 -26 7 -26 19 0 6 6 6 15 -2 9 -7 13 -15 11 -17z m7 -33
c-3 -12 -8 -19 -11 -16 -5 6 5 36 12 36 2 0 2 -9 -1 -20z m307 -34 c0 -9 -9
-12 -27 -9 l-28 5 28 -20 c25 -17 26 -20 12 -32 -11 -9 -24 -10 -48 -4 -25 8
-33 16 -35 38 -3 23 0 27 12 23 8 -3 18 -2 21 3 10 16 65 12 65 -4z m-137 -8
c8 -26 -6 -47 -39 -58 -26 -9 -38 -9 -48 -1 -7 6 -21 9 -30 5 -9 -3 -16 -1
-16 6 0 6 4 9 8 6 4 -2 27 9 51 25 48 32 67 36 74 17z m22 -104 c-1 -11 -7
-29 -13 -40 -11 -18 -11 -18 -12 0 0 16 -2 17 -17 5 -16 -13 -17 -12 -4 3 7
10 17 15 22 12 5 -3 9 7 9 22 l0 27 -21 -27 c-11 -14 -26 -26 -32 -25 -8 0 -8
2 1 6 6 2 9 9 6 15 -4 6 4 19 16 28 27 21 49 8 45 -26z m70 29 c33 -16 46 -33
25 -33 -5 0 -10 5 -10 11 0 5 -5 7 -11 4 -5 -4 -19 1 -30 11 -10 9 -19 13 -19
8 0 -5 14 -21 31 -35 24 -19 29 -28 19 -34 -8 -5 -11 -4 -6 3 3 6 -3 13 -14
17 -23 7 -44 41 -35 55 8 13 8 13 50 -7z m45 -94 c0 -6 -4 -7 -10 -4 -5 3 -10
11 -10 16 0 6 5 7 10 4 6 -3 10 -11 10 -16z m-170 -47 c0 -15 -2 -15 -10 -2
-13 20 -13 33 0 25 6 -3 10 -14 10 -23z"/>
<path d="M4020 5729 c0 -5 5 -7 10 -4 6 3 10 8 10 11 0 2 -4 4 -10 4 -5 0 -10
-5 -10 -11z"/>
<path d="M2937 5699 c-20 -17 -37 -36 -37 -42 0 -7 37 -45 83 -86 l82 -74 -80
81 c-88 91 -89 98 -9 113 56 11 78 0 120 -58 40 -54 50 -63 28 -25 -28 49 -90
102 -120 102 -14 0 -23 4 -19 10 12 20 -11 10 -48 -21z"/>
<path d="M5332 5718 c-15 -15 -16 -31 -1 -22 7 4 1 -12 -12 -36 -13 -24 -38
-52 -56 -62 -34 -20 -48 -44 -33 -53 6 -4 10 -1 10 6 0 7 3 10 6 6 4 -3 -3
-22 -14 -41 -13 -22 -17 -38 -11 -42 14 -8 34 11 64 62 14 24 33 44 41 44 12
0 14 -5 9 -17 -18 -42 -28 -91 -21 -108 5 -14 14 -16 43 -12 21 4 42 2 50 -4
17 -15 53 -5 81 21 30 28 28 46 -3 26 -31 -20 -55 -21 -55 -1 0 8 6 15 14 15
20 0 77 50 70 61 -13 21 -53 7 -88 -31 -20 -22 -36 -45 -36 -50 0 -6 -11 -10
-25 -10 -14 0 -25 5 -25 12 0 26 33 98 45 98 19 0 38 27 26 35 -7 4 -4 20 9
45 11 22 20 42 20 46 0 13 -42 -31 -56 -58 -8 -16 -21 -28 -29 -28 -19 0 -19
2 1 44 23 48 7 85 -24 54z"/>
<path d="M2680 5703 c14 -9 37 -27 53 -41 15 -14 27 -20 27 -14 0 13 -77 72
-94 72 -6 0 1 -7 14 -17z"/>
<path d="M3910 5712 c0 -4 9 -13 20 -20 19 -12 20 -11 8 8 -13 20 -28 27 -28
12z"/>
<path d="M4985 5690 c-3 -5 -1 -10 4 -10 16 0 13 -32 -4 -54 -17 -22 -20 -66
-5 -66 5 0 20 21 32 48 23 46 24 47 66 44 23 -2 42 1 42 6 0 15 -56 35 -78 28
-11 -4 -23 -2 -27 4 -8 13 -22 13 -30 0z"/>
<path d="M2219 5673 c-13 -16 -12 -17 4 -4 9 7 17 15 17 17 0 8 -8 3 -21 -13z"/>
<path d="M1520 5671 c0 -10 30 -24 37 -17 3 2 -5 9 -16 16 -12 6 -21 7 -21 1z"/>
<path d="M1300 5649 c-7 -11 -10 -23 -7 -25 2 -2 9 7 15 21 14 30 7 33 -8 4z"/>
<path d="M2515 5659 c-11 -16 -1 -19 13 -3 7 8 8 14 3 14 -5 0 -13 -5 -16 -11z"/>
<path d="M4002 5640 c0 -14 2 -19 5 -12 2 6 2 18 0 25 -3 6 -5 1 -5 -13z"/>
<path d="M2403 5553 c-43 -43 -87 -94 -97 -113 l-19 -35 34 30 c19 16 39 34
44 38 6 5 1 5 -10 1 -15 -6 -12 2 14 32 47 55 104 104 116 100 6 -2 10 -12 9
-24 0 -13 4 -18 13 -15 18 7 16 20 -6 45 l-20 20 -78 -79z"/>
<path d="M974 5611 c8 -12 96 -74 96 -67 0 2 -23 21 -51 41 -28 20 -48 32 -45
26z"/>
<path d="M5778 5560 c-27 -48 -37 -58 -54 -54 -22 6 -69 -34 -79 -67 -8 -23
-33 -25 -41 -4 -4 9 -1 29 6 46 14 34 3 54 -14 25 -6 -11 -23 -33 -38 -50 -22
-25 -27 -27 -28 -13 0 10 14 32 30 49 17 17 29 35 27 42 -2 6 -21 -6 -41 -28
-27 -28 -36 -46 -34 -65 2 -22 8 -26 33 -26 17 0 40 -5 51 -12 12 -7 25 -9 28
-5 4 4 12 -1 18 -11 7 -13 17 -17 33 -13 14 4 27 0 35 -9 7 -8 21 -15 31 -15
10 0 22 -6 26 -13 15 -25 58 -28 81 -6 28 25 28 46 0 69 l-23 19 33 11 c33 12
43 30 17 30 -22 0 -75 -28 -75 -40 0 -5 9 -18 21 -29 12 -11 18 -24 14 -30
-10 -17 -55 -13 -55 4 0 11 -7 14 -25 9 -21 -5 -25 -3 -25 17 0 13 9 38 21 54
31 46 79 143 79 160 0 31 -20 14 -52 -45z m-58 -94 c0 -17 -38 -66 -51 -66
-13 0 -1 40 19 63 18 20 32 22 32 3z"/>
<path d="M2079 5533 c-50 -53 -124 -143 -117 -143 3 0 42 43 86 95 45 52 81
95 79 95 -1 0 -23 -21 -48 -47z"/>
<path d="M6088 5558 c-25 -20 -148 -217 -151 -241 -5 -50 31 -25 113 80 47 59
90 116 97 127 21 37 -23 62 -59 34z"/>
<path d="M3536 5522 c3 -13 17 -47 30 -75 13 -29 21 -41 18 -27 -4 14 -17 48
-30 75 -13 28 -21 39 -18 27z"/>
<path d="M1172 5475 c0 -16 2 -22 5 -12 2 9 2 23 0 30 -3 6 -5 -1 -5 -18z"/>
<path d="M3075 5480 c5 -8 32 -42 60 -75 28 -33 61 -77 74 -97 12 -21 25 -38
28 -38 8 0 -22 45 -85 127 -52 69 -98 119 -77 83z"/>
<path d="M3186 5477 c3 -10 9 -15 12 -12 3 3 0 11 -7 18 -10 9 -11 8 -5 -6z"/>
<path d="M2602 5422 c-28 -46 -71 -139 -102 -222 -7 -19 -18 -41 -23 -47 -6
-9 -5 -13 4 -13 8 0 27 -16 42 -35 34 -42 17 -46 -24 -6 -16 16 -29 24 -29 18
0 -7 -3 -23 -5 -37 l-6 -25 11 24 11 24 39 -38 c46 -45 48 -51 19 -60 -11 -4
-18 -9 -16 -12 6 -5 31 8 60 31 16 13 14 18 -36 70 l-54 56 21 57 c11 32 44
104 73 160 28 57 50 103 48 103 -2 0 -17 -22 -33 -48z m-28 -383 c-3 -5 -10
-7 -15 -3 -5 3 -7 10 -3 15 3 5 10 7 15 3 5 -3 7 -10 3 -15z"/>
<path d="M450 5434 c-22 -13 -22 -14 -3 -9 19 5 22 1 26 -27 3 -29 4 -28 5 10
1 23 1 42 0 42 -2 -1 -14 -7 -28 -16z"/>
<path d="M3227 5380 c9 -22 18 -38 20 -36 5 5 -24 76 -31 76 -2 0 3 -18 11
-40z"/>
<path d="M1925 5353 l-17 -28 23 22 c12 12 20 25 17 28 -3 3 -13 -7 -23 -22z"/>
<path d="M2897 5330 c3 -11 7 -20 9 -20 2 0 4 9 4 20 0 11 -4 20 -9 20 -5 0
-7 -9 -4 -20z"/>
<path d="M5522 5315 c0 -16 2 -22 5 -12 2 9 2 23 0 30 -3 6 -5 -1 -5 -18z"/>
<path d="M3256 5310 c3 -14 11 -32 16 -40 6 -10 7 -7 2 10 -3 14 -11 32 -16
40 -6 10 -7 7 -2 -10z"/>
<path d="M1889 5303 c-13 -16 -12 -17 4 -4 16 13 21 21 13 21 -2 0 -10 -8 -17
-17z"/>
<path d="M2912 5280 c0 -14 2 -19 5 -12 2 6 2 18 0 25 -3 6 -5 1 -5 -13z"/>
<path d="M5520 5268 c0 -4 -10 -9 -22 -11 -21 -4 -21 -4 2 -5 14 -1 39 5 55
12 l30 13 -32 -1 c-18 -1 -33 -4 -33 -8z"/>
<path d="M1812 5225 c-30 -25 -50 -45 -45 -45 9 0 111 89 103 89 -3 0 -29 -20
-58 -44z"/>
<path d="M2862 5250 c0 -14 2 -19 5 -12 2 6 2 18 0 25 -3 6 -5 1 -5 -13z"/>
<path d="M5887 5263 c-4 -3 -7 -15 -7 -25 0 -22 23 -24 41 -2 10 13 10 17 -2
25 -17 11 -24 11 -32 2z"/>
<path d="M2922 5230 c0 -14 2 -19 5 -12 2 6 2 18 0 25 -3 6 -5 1 -5 -13z"/>
<path d="M4076 5228 c-9 -34 -6 -46 4 -20 12 28 30 29 30 0 0 -12 3 -19 6 -15
11 10 -6 57 -20 57 -8 0 -16 -10 -20 -22z"/>
<path d="M3256 5230 c4 -8 17 -31 29 -50 31 -50 58 -125 121 -343 90 -309 112
-386 107 -391 -3 -2 5 -10 17 -16 18 -10 21 -9 17 2 -12 28 -107 322 -107 330
0 5 8 4 18 -1 10 -6 30 -8 43 -5 17 4 20 3 10 -4 -10 -7 -1 -11 32 -13 44 -4
47 -3 53 24 3 16 3 31 0 34 -3 4 -6 -3 -6 -15 0 -31 -14 -34 -60 -16 -38 15
-41 20 -36 44 5 26 3 28 -22 21 -17 -5 -29 -16 -32 -32 -5 -20 -8 -16 -18 26
-23 95 -126 399 -130 386 -3 -10 -10 -7 -24 10 -11 13 -16 17 -12 9z m218
-425 c-4 -8 -1 -22 6 -30 14 -16 10 -18 -14 -9 -24 9 -20 54 5 54 5 0 6 -7 3
-15z"/>
<path d="M5522 5215 c0 -16 2 -22 5 -12 2 9 2 23 0 30 -3 6 -5 -1 -5 -18z"/>
<path d="M1020 5226 c0 -2 8 -10 18 -17 15 -13 16 -12 3 4 -13 16 -21 21 -21
13z"/>
<path d="M2871 5210 c0 -8 4 -22 9 -30 12 -18 12 -2 0 25 -6 13 -9 15 -9 5z"/>
<path d="M1070 5154 c0 -6 7 -19 16 -30 14 -18 14 -18 3 6 -14 31 -19 36 -19
24z"/>
<path d="M1707 5133 c-4 -3 -7 -11 -7 -17 0 -6 5 -5 12 2 6 6 9 14 7 17 -3 3
-9 2 -12 -2z"/>
<path d="M4088 5133 c7 -3 16 -2 19 1 4 3 -2 6 -13 5 -11 0 -14 -3 -6 -6z"/>
<path d="M2900 5121 c0 -6 4 -13 10 -16 6 -3 7 1 4 9 -7 18 -14 21 -14 7z"/>
<path d="M2698 5103 c7 -3 16 -2 19 1 4 3 -2 6 -13 5 -11 0 -14 -3 -6 -6z"/>
<path d="M4072 5090 c0 -14 2 -19 5 -12 2 6 2 18 0 25 -3 6 -5 1 -5 -13z"/>
<path d="M4132 5090 c0 -14 2 -19 5 -12 2 6 2 18 0 25 -3 6 -5 1 -5 -13z"/>
<path d="M4154 5091 c0 -11 4 -17 8 -15 4 3 8 12 8 20 0 8 -4 14 -8 14 -4 0
-8 -9 -8 -19z"/>
<path d="M1110 5080 c6 -11 13 -20 16 -20 2 0 0 9 -6 20 -6 11 -13 20 -16 20
-2 0 0 -9 6 -20z"/>
<path d="M2650 5080 c-14 -11 -20 -20 -14 -20 6 0 19 9 29 20 23 25 17 25 -15
0z"/>
<path d="M2663 5057 c-58 -41 -59 -77 -5 -130 47 -46 67 -49 26 -4 -17 17 -37
41 -45 51 -13 18 -13 19 7 8 33 -17 85 -82 78 -95 -5 -8 -3 -8 7 1 11 10 3 23
-46 73 -48 48 -57 62 -45 69 31 18 84 60 74 59 -5 0 -28 -15 -51 -32z"/>
<path d="M2920 5085 c0 -5 5 -17 10 -25 5 -8 10 -10 10 -5 0 6 -5 17 -10 25
-5 8 -10 11 -10 5z"/>
<path d="M1150 5025 c13 -14 26 -25 28 -25 3 0 -5 11 -18 25 -13 14 -26 25
-28 25 -3 0 5 -11 18 -25z"/>
<path d="M1568 5043 c7 -3 16 -2 19 1 4 3 -2 6 -13 5 -11 0 -14 -3 -6 -6z"/>
<path d="M2451 5034 c0 -11 3 -14 6 -6 3 7 2 16 -1 19 -3 4 -6 -2 -5 -13z"/>
<path d="M3581 5027 c-13 -21 -12 -21 5 -5 10 10 16 20 13 22 -3 3 -11 -5 -18
-17z"/>
<path d="M3620 5041 c0 -6 4 -13 10 -16 6 -3 7 1 4 9 -7 18 -14 21 -14 7z"/>
<path d="M4170 5031 c0 -11 4 -22 9 -25 12 -8 34 21 26 34 -11 17 -35 11 -35
-9z m30 -1 c0 -5 -4 -10 -10 -10 -5 0 -10 5 -10 10 0 6 5 10 10 10 6 0 10 -4
10 -10z"/>
<path d="M4082 5015 c0 -16 2 -22 5 -12 2 9 2 23 0 30 -3 6 -5 -1 -5 -18z"/>
<path d="M2020 5005 c-13 -14 -22 -27 -19 -29 2 -2 14 10 27 25 29 36 24 38
-8 4z"/>
<path d="M2980 5015 c0 -5 5 -17 10 -25 5 -8 10 -10 10 -5 0 6 -5 17 -10 25
-5 8 -10 11 -10 5z"/>
<path d="M2441 4994 c0 -11 3 -14 6 -6 3 7 2 16 -1 19 -3 4 -6 -2 -5 -13z"/>
<path d="M2585 5000 c-3 -5 -1 -10 4 -10 6 0 11 5 11 10 0 6 -2 10 -4 10 -3 0
-8 -4 -11 -10z"/>
<path d="M2965 4996 c7 -24 74 -131 103 -165 13 -15 7 0 -15 39 -21 36 -41 67
-45 68 -5 2 -5 9 -1 15 3 7 2 8 -2 4 -5 -4 -17 7 -28 25 -10 18 -16 25 -12 14z"/>
<path d="M3549 4993 c6 -12 11 -31 11 -42 0 -12 5 -21 12 -21 6 0 8 3 5 7 -4
3 -1 13 6 21 9 13 9 14 0 8 -7 -4 -13 -3 -13 1 0 5 -7 18 -16 29 -15 18 -15
18 -5 -3z"/>
<path d="M3596 4993 c-6 -14 -5 -15 5 -6 7 7 10 15 7 18 -3 3 -9 -2 -12 -12z"/>
<path d="M4855 4986 c10 -14 21 -23 26 -20 10 6 49 -54 49 -75 0 -8 -8 -24
-17 -35 -16 -20 -16 -19 6 1 18 16 22 28 17 46 -7 30 -50 83 -78 98 -19 10
-19 10 -3 -15z"/>
<path d="M2547 4984 c-3 -4 -18 -8 -32 -9 -26 -3 -85 -36 -103 -58 -6 -7 -8
-18 -4 -25 6 -8 17 -6 41 9 18 11 31 23 27 26 -3 3 -17 -2 -31 -11 -14 -9 -25
-13 -25 -8 0 12 50 33 61 26 9 -5 89 42 89 52 0 6 -16 4 -23 -2z"/>
<path d="M3643 4975 c-3 -9 -3 -18 -1 -21 3 -3 8 4 11 16 6 23 -1 27 -10 5z"/>
<path d="M4092 4950 c0 -14 2 -19 5 -12 2 6 2 18 0 25 -3 6 -5 1 -5 -13z"/>
<path d="M4225 4950 c-3 -11 -4 -29 0 -39 12 -39 96 -33 94 7 0 14 -3 13 -16
-5 -18 -27 -36 -29 -57 -7 -10 10 -14 24 -10 40 7 29 -2 32 -11 4z"/>
<path d="M2950 4937 c0 -34 131 -226 213 -311 l69 -71 -59 66 c-67 74 -142
179 -178 247 -29 56 -45 80 -45 69z"/>
<path d="M1889 4913 c-13 -16 -12 -17 4 -4 9 7 17 15 17 17 0 8 -8 3 -21 -13z"/>
<path d="M1963 4918 c-15 -20 -25 -38 -20 -38 3 0 12 11 21 25 17 26 16 35 -1
13z"/>
<path d="M1710 4905 c-14 -8 -20 -14 -14 -15 5 0 19 7 30 15 24 18 16 19 -16
0z"/>
<path d="M2802 4900 c0 -14 2 -19 5 -12 2 6 2 18 0 25 -3 6 -5 1 -5 -13z"/>
<path d="M4101 4894 c0 -11 3 -14 6 -6 3 7 2 16 -1 19 -3 4 -6 -2 -5 -13z"/>
<path d="M4600 4899 c0 -5 5 -7 12 -3 8 5 9 1 4 -12 -5 -14 -4 -16 5 -7 6 6 8
16 5 22 -9 14 -26 14 -26 0z"/>
<path d="M957 4859 c-46 -31 -59 -52 -18 -29 12 6 37 10 56 8 19 -1 41 4 47
11 11 11 10 12 0 7 -7 -5 -25 -5 -39 -1 -24 6 -25 7 -7 20 34 26 10 15 -39
-16z"/>
<path d="M3586 4867 c3 -10 9 -15 12 -12 3 3 0 11 -7 18 -10 9 -11 8 -5 -6z"/>
<path d="M1920 4848 c-12 -22 -12 -22 6 -6 10 10 15 20 12 24 -4 3 -12 -5 -18
-18z"/>
<path d="M1849 4823 c-13 -16 -12 -17 4 -4 9 7 17 15 17 17 0 8 -8 3 -21 -13z"/>
<path d="M4459 4819 c-24 -24 -20 -65 8 -86 28 -22 33 -14 8 11 -13 13 -22 32
-20 42 2 11 4 22 4 27 1 4 7 7 15 7 8 0 18 5 21 10 11 18 -15 10 -36 -11z"/>
<path d="M4853 4833 c9 -2 23 -2 30 0 6 3 -1 5 -18 5 -16 0 -22 -2 -12 -5z"/>
<path d="M979 4813 c-13 -16 -12 -17 4 -4 16 13 21 21 13 21 -2 0 -10 -8 -17
-17z"/>
<path d="M1060 4826 c0 -2 8 -10 18 -17 15 -13 16 -12 3 4 -13 16 -21 21 -21
13z"/>
<path d="M865 4794 l-30 -26 33 22 c17 12 32 23 32 26 0 7 -4 5 -35 -22z"/>
<path d="M2807 4813 c-10 -9 -9 -41 1 -47 5 -3 9 8 9 24 0 33 -1 33 -10 23z"/>
<path d="M1803 4798 c-15 -20 -25 -38 -20 -38 3 0 12 11 21 25 17 26 16 35 -1
13z"/>
<path d="M920 4769 c-19 -17 -27 -26 -17 -19 13 10 21 10 35 -1 14 -11 15 -11
5 1 -10 11 -9 17 4 32 25 28 11 21 -27 -13z"/>
<path d="M1536 4785 c-9 -26 -7 -32 5 -12 6 10 9 21 6 23 -2 3 -7 -2 -11 -11z"/>
<path d="M3090 4796 c0 -2 8 -10 18 -17 15 -13 16 -12 3 4 -13 16 -21 21 -21
13z"/>
<path d="M3791 4774 c0 -11 3 -14 6 -6 3 7 2 16 -1 19 -3 4 -6 -2 -5 -13z"/>
<path d="M4122 4770 c0 -14 2 -19 5 -12 2 6 2 18 0 25 -3 6 -5 1 -5 -13z"/>
<path d="M1876 4765 c-9 -26 -7 -32 5 -12 6 10 9 21 6 23 -2 3 -7 -2 -11 -11z"/>
<path d="M734 4683 c-50 -49 -65 -64 -34 -35 44 41 63 52 89 52 l33 0 -52 -62
-53 -63 56 59 c54 56 62 76 31 76 -20 0 -18 10 8 37 49 52 7 17 -78 -64z"/>
<path d="M1692 4735 c0 -16 2 -22 5 -12 2 9 2 23 0 30 -3 6 -5 -1 -5 -18z"/>
<path d="M4520 4745 c-7 -9 -8 -15 -2 -15 5 0 12 7 16 15 3 8 4 15 2 15 -2 0
-9 -7 -16 -15z"/>
<path d="M2368 4705 l-26 -44 -48 15 c-26 8 -77 16 -113 18 -37 2 -52 2 -36 0
49 -7 169 -36 178 -43 4 -4 -41 -54 -100 -111 -60 -57 -94 -94 -78 -83 17 12
66 58 110 103 71 71 83 80 108 74 16 -3 27 -1 27 5 0 6 -9 11 -20 11 -21 0
-27 15 -10 25 11 7 43 65 38 70 -2 2 -15 -17 -30 -40z"/>
<path d="M854 4718 l-19 -23 23 19 c21 18 27 26 19 26 -2 0 -12 -10 -23 -22z"/>
<path d="M2822 4720 c0 -14 2 -19 5 -12 2 6 2 18 0 25 -3 6 -5 1 -5 -13z"/>
<path d="M1425 4699 c-9 -17 -15 -33 -13 -35 3 -2 12 12 21 31 21 43 13 47 -8
4z"/>
<path d="M1755 4719 c-4 -6 -5 -12 -2 -15 2 -3 7 2 10 11 7 17 1 20 -8 4z"/>
<path d="M1832 4653 c-17 -43 -33 -96 -37 -118 -16 -102 -13 -95 -46 -77 -18
11 -29 25 -29 40 0 12 -4 22 -10 22 -5 0 -10 7 -10 15 0 8 -7 15 -15 15 -28 0
-16 -32 40 -106 18 -23 36 -40 39 -37 18 18 2 -20 -23 -54 -76 -105 -193 -120
-283 -35 -16 14 -28 22 -28 18 0 -5 -6 -3 -13 3 -11 8 -18 6 -33 -12 l-19 -22
22 18 c21 18 21 18 29 -5 4 -13 23 -38 43 -56 33 -31 35 -34 23 -65 -12 -32
-4 -26 23 18 8 14 15 15 40 5 16 -6 71 -10 122 -9 52 1 96 0 98 -3 3 -2 -2
-29 -11 -59 -8 -30 -15 -62 -15 -72 0 -9 -4 -15 -9 -12 -5 3 -14 -4 -20 -16
-8 -15 -9 -19 -1 -15 6 4 11 1 11 -6 1 -24 21 21 49 109 21 64 33 88 49 94 12
5 23 5 26 1 9 -14 44 -177 56 -257 11 -73 32 -135 46 -135 12 0 -44 293 -71
370 -17 47 -8 59 17 23 15 -24 18 -25 18 -8 1 18 2 17 16 -5 8 -14 13 -17 10
-7 -3 10 -6 27 -6 37 0 27 -27 32 -68 11 -38 -19 -126 -41 -165 -41 -20 0 -19
2 8 18 17 10 54 31 84 47 50 27 54 28 66 12 12 -16 19 -14 95 35 l82 52 -31
11 c-25 8 -29 13 -19 23 6 6 20 12 29 12 23 0 18 31 -7 41 -33 13 -51 8 -20
-5 l29 -13 -49 -36 c-27 -20 -58 -37 -69 -37 -15 0 -12 5 14 21 l34 20 -37 33
c-20 19 -36 42 -36 52 0 11 -6 36 -13 56 l-13 37 -13 -45 c-15 -50 -36 -72
-25 -27 3 15 19 66 35 113 15 46 27 86 25 87 -2 2 -17 -32 -34 -74z m42 -201
c7 -22 5 -23 -31 -20 -42 3 -44 10 -16 75 l16 38 12 -35 c7 -19 15 -45 19 -58z
m-50 -97 c14 -21 13 -24 -2 -39 -23 -20 -98 -52 -142 -60 -30 -6 -33 -5 -16 6
49 34 69 54 92 89 26 42 43 43 68 4z m-289 -101 c14 -3 49 -10 78 -14 45 -6
47 -8 17 -10 -58 -4 -93 1 -125 17 -40 21 -75 53 -75 71 0 9 15 1 40 -22 22
-19 51 -38 65 -42z"/>
<path d="M3215 4660 c33 -33 62 -60 64 -60 3 0 -21 27 -54 60 -33 33 -62 60
-64 60 -3 0 21 -27 54 -60z"/>
<path d="M4131 4704 c0 -11 3 -14 6 -6 3 7 2 16 -1 19 -3 4 -6 -2 -5 -13z"/>
<path d="M2783 4670 c0 -25 2 -35 4 -22 2 12 2 32 0 45 -2 12 -4 2 -4 -23z"/>
<path d="M4141 4668 c-3 -55 94 -447 107 -434 2 3 -5 35 -17 73 -12 38 -37
138 -55 223 -19 85 -35 147 -35 138z"/>
<path d="M2772 4600 c0 -14 2 -19 5 -12 2 6 2 18 0 25 -3 6 -5 1 -5 -13z"/>
<path d="M1032 4573 c-10 -16 -24 -38 -31 -50 -21 -41 -5 -24 27 27 33 54 36
68 4 23z"/>
<path d="M3304 4582 c8 -13 66 -56 66 -49 0 3 -17 17 -37 33 -20 15 -33 23
-29 16z"/>
<path d="M619 4563 c-29 -35 -41 -53 -36 -53 2 0 17 16 31 35 28 36 31 49 5
18z"/>
<path d="M700 4555 c-7 -9 -8 -15 -2 -15 5 0 12 7 16 15 3 8 4 15 2 15 -2 0
-9 -7 -16 -15z"/>
<path d="M2940 4561 c0 -7 24 -11 68 -11 38 0 94 -5 126 -11 74 -13 85 -5 14
11 -82 18 -208 25 -208 11z"/>
<path d="M1432 4535 c0 -11 3 -29 7 -40 8 -19 8 -19 15 3 4 13 5 26 2 29 -3 4
-6 0 -7 -8 -1 -8 -5 -3 -9 11 -6 20 -8 21 -8 5z"/>
<path d="M2663 4480 c0 -41 2 -58 4 -37 2 20 2 54 0 75 -2 20 -4 3 -4 -38z"/>
<path d="M2761 4534 c0 -11 3 -14 6 -6 3 7 2 16 -1 19 -3 4 -6 -2 -5 -13z"/>
<path d="M3852 4530 c0 -14 2 -19 5 -12 2 6 2 18 0 25 -3 6 -5 1 -5 -13z"/>
<path d="M2082 4509 c-19 -17 -32 -32 -30 -35 3 -2 20 12 38 31 42 43 37 45
-8 4z"/>
<path d="M675 4519 c-4 -6 -5 -12 -2 -15 2 -3 7 2 10 11 7 17 1 20 -8 4z"/>
<path d="M740 4526 c0 -2 8 -10 18 -17 15 -13 16 -12 3 4 -13 16 -21 21 -21
13z"/>
<path d="M3245 4511 c22 -11 44 -20 49 -21 5 0 32 -18 61 -39 34 -26 52 -34
52 -25 0 14 -104 82 -137 90 -8 2 -26 6 -40 9 -15 4 -9 -2 15 -14z"/>
<path d="M3384 4521 c7 -11 46 -35 46 -28 0 3 -12 12 -26 22 -15 9 -23 12 -20
6z"/>
<path d="M1095 4511 c-3 -5 -1 -12 5 -16 5 -3 10 1 10 9 0 18 -6 21 -15 7z"/>
<path d="M2926 4498 c11 -39 45 -102 66 -125 12 -12 17 -27 13 -34 -5 -7 -4
-10 2 -6 5 3 31 -23 58 -58 27 -36 51 -63 54 -60 2 3 -7 18 -21 33 -48 52
-110 144 -140 208 -30 64 -46 84 -32 42z"/>
<path d="M1499 4463 c-49 -68 -49 -76 -1 -20 36 41 51 67 39 67 -2 0 -19 -21
-38 -47z"/>
<path d="M555 4470 c-9 -16 -13 -30 -11 -30 3 0 12 14 21 30 9 17 13 30 11 30
-3 0 -12 -13 -21 -30z"/>
<path d="M789 4487 c7 -9 10 -24 7 -33 -5 -14 -4 -15 9 -4 20 17 19 23 -7 39
-21 13 -22 13 -9 -2z"/>
<path d="M2751 4484 c0 -11 3 -14 6 -6 3 7 2 16 -1 19 -3 4 -6 -2 -5 -13z"/>
<path d="M3862 4485 c0 -11 4 -33 8 -50 7 -27 8 -27 8 -5 0 14 -4 36 -8 50 -6
20 -8 21 -8 5z"/>
<path d="M645 4459 c-9 -17 -15 -33 -13 -35 3 -2 12 12 21 31 21 43 13 47 -8
4z"/>
<path d="M3440 4486 c0 -3 9 -10 20 -16 11 -6 20 -8 20 -6 0 3 -9 10 -20 16
-11 6 -20 8 -20 6z"/>
<path d="M2090 4453 c0 -14 -8 -36 -17 -47 -18 -21 -18 -21 3 -3 20 16 22 16
28 2 13 -34 7 -46 -19 -39 -17 4 -25 2 -25 -7 0 -12 -2 -12 -9 0 -7 11 -22 5
-72 -29 l-64 -42 43 5 c44 5 51 0 30 -22 -11 -12 -9 -13 7 -6 11 4 42 10 69
13 45 4 49 3 42 -14 -4 -10 -9 -48 -12 -83 -4 -72 16 -119 64 -147 l27 -15
-28 4 c-26 4 -27 3 -11 -14 9 -11 37 -20 69 -24 71 -9 91 -1 35 15 -80 21
-128 85 -127 170 0 25 2 35 4 22 3 -12 9 -20 14 -16 6 3 25 3 44 0 30 -6 34
-10 37 -44 2 -26 8 -38 22 -40 27 -6 40 14 38 55 -3 36 8 40 16 5 14 -60 13
-104 -3 -123 -16 -17 -16 -19 -2 -19 20 0 33 24 42 75 13 80 15 87 31 81 17
-6 12 7 -14 37 -19 22 -4 22 28 0 22 -14 21 -12 -5 16 -36 39 -100 79 -152 93
-48 13 -107 71 -100 98 3 11 1 23 -4 26 -5 3 -9 14 -9 25 0 10 -4 19 -10 19
-5 0 -10 -12 -10 -27z m81 -170 c8 -15 36 -35 68 -49 38 -17 51 -28 44 -35
-13 -13 -58 8 -87 40 -10 11 -23 18 -27 15 -5 -3 -6 2 -3 10 4 11 -3 19 -21
26 -14 5 -24 14 -20 20 9 14 31 2 46 -27z"/>
<path d="M2371 4464 c0 -11 3 -14 6 -6 3 7 2 16 -1 19 -3 4 -6 -2 -5 -13z"/>
<path d="M4376 4467 c3 -10 9 -15 12 -12 3 3 0 11 -7 18 -10 9 -11 8 -5 -6z"/>
<path d="M4572 4460 c0 -14 2 -19 5 -12 2 6 2 18 0 25 -3 6 -5 1 -5 -13z"/>
<path d="M2045 4450 c3 -5 14 -10 23 -10 15 0 15 2 2 10 -20 13 -33 13 -25 0z"/>
<path d="M2732 4411 c-14 -45 -16 -109 -3 -76 10 24 24 115 18 115 -2 0 -9
-17 -15 -39z"/>
<path d="M2413 4400 c0 -25 2 -35 4 -22 2 12 2 32 0 45 -2 12 -4 2 -4 -23z"/>
<path d="M2371 4414 c0 -11 3 -14 6 -6 3 7 2 16 -1 19 -3 4 -6 -2 -5 -13z"/>
<path d="M3190 4426 c0 -2 8 -10 18 -17 15 -13 16 -12 3 4 -13 16 -21 21 -21
13z"/>
<path d="M616 4395 c-9 -26 -7 -32 5 -12 6 10 9 21 6 23 -2 3 -7 -2 -11 -11z"/>
<path d="M4581 4394 c0 -11 3 -14 6 -6 3 7 2 16 -1 19 -3 4 -6 -2 -5 -13z"/>
<path d="M3881 4394 c-1 -6 6 -55 14 -110 8 -54 15 -112 15 -127 0 -27 -2 -28
-32 -23 l-33 6 35 -14 c19 -8 55 -14 80 -14 42 1 43 2 8 5 -21 2 -38 10 -38
16 -1 55 -46 297 -49 261z"/>
<path d="M507 4376 c-9 -23 -8 -24 23 -15 14 4 18 7 8 8 -9 1 -18 6 -20 13 -3
7 -7 5 -11 -6z"/>
<path d="M1400 4381 c0 -10 19 -25 25 -20 1 2 -3 10 -11 17 -8 7 -14 8 -14 3z"/>
<path d="M3220 4387 c0 -2 36 -46 80 -97 60 -71 77 -97 69 -107 -7 -8 -17 -10
-28 -4 -22 12 -172 43 -178 37 -3 -3 12 -8 33 -11 22 -4 65 -14 98 -23 56 -15
57 -16 35 -28 -13 -7 -34 -13 -46 -14 -39 0 -34 -17 14 -53 67 -48 107 -67
143 -67 17 0 29 -4 25 -9 -3 -6 3 -14 12 -20 22 -13 -1 -14 -32 -2 -14 6 -24
3 -32 -8 -17 -23 -16 -36 2 -21 17 15 19 7 5 -21 -14 -26 -5 -24 34 6 20 15
40 23 50 19 20 -8 20 -5 -5 -51 -11 -21 -14 -30 -7 -19 42 59 43 60 79 47 19
-7 79 -14 134 -16 l100 -4 -89 9 c-91 9 -216 39 -216 52 0 4 8 12 18 18 9 6
13 13 7 16 -5 2 -39 24 -75 49 -36 25 -73 48 -82 51 -24 8 -23 19 4 44 l22 20
29 -27 28 -28 -27 -5 -27 -5 34 -26 c49 -37 114 -69 142 -69 14 0 51 -12 83
-26 47 -21 78 -27 149 -30 l90 -3 -80 9 c-44 4 -98 15 -120 24 -33 14 -35 15
-10 11 74 -13 211 -16 235 -6 20 8 13 9 -36 5 -60 -6 -195 10 -224 27 -12 7
-11 8 6 9 24 0 69 36 56 44 -5 3 -18 -1 -28 -9 -47 -36 -163 -2 -244 71 -28
26 -40 43 -37 56 4 15 1 18 -13 13 -14 -4 -37 16 -95 85 -71 82 -85 97 -85 87z"/>
<path d="M3485 4371 c3 -5 19 -13 37 -16 17 -4 57 -32 92 -64 63 -59 129 -106
181 -131 17 -8 33 -16 38 -18 4 -2 7 -1 7 2 0 3 -23 18 -52 32 -90 46 -173
116 -176 148 0 5 -29 20 -64 33 -73 26 -71 26 -63 14z"/>
<path d="M4430 4360 c6 -11 13 -20 16 -20 2 0 0 9 -6 20 -6 11 -13 20 -16 20
-2 0 0 -9 6 -20z"/>
<path d="M742 4345 c-7 -14 -12 -31 -12 -38 1 -7 7 3 16 22 17 39 13 54 -4 16z"/>
<path d="M1070 4361 c0 -6 4 -13 10 -16 6 -3 7 1 4 9 -7 18 -14 21 -14 7z"/>
<path d="M592 4344 c-7 -8 -13 -25 -12 -37 1 -12 2 -43 1 -69 -1 -48 -1 -48
-35 -48 -19 0 -37 -3 -40 -8 -2 -4 13 -6 35 -4 43 4 89 -18 169 -82 56 -45 65
-45 37 -2 -12 18 -25 29 -28 24 -4 -6 -28 6 -53 26 -26 20 -54 36 -62 36 -10
0 -14 13 -14 48 0 60 15 79 44 54 12 -10 10 -4 -6 16 -15 18 -25 39 -22 47 8
19 3 18 -14 -1z"/>
<path d="M2672 4335 c0 -16 2 -22 5 -12 2 9 2 23 0 30 -3 6 -5 -1 -5 -18z"/>
<path d="M4595 4328 c3 -20 22 -88 42 -150 20 -62 36 -116 35 -120 -1 -6 60
-67 113 -113 6 -5 29 -26 51 -45 27 -24 23 -18 -13 20 l-52 55 5 155 c5 146 4
157 -15 180 l-21 25 0 -56 c0 -31 -3 -90 -6 -132 -5 -53 -4 -77 4 -77 6 0 13
25 15 58 2 32 4 14 4 -43 l0 -99 -24 29 c-24 30 -93 164 -93 182 0 5 -11 45
-25 89 -14 43 -23 62 -20 42z"/>
<path d="M2381 4334 c0 -11 3 -14 6 -6 3 7 2 16 -1 19 -3 4 -6 -2 -5 -13z"/>
<path d="M3659 4337 c5 -5 26 -7 47 -5 l39 3 -47 5 c-26 3 -43 1 -39 -3z"/>
<path d="M3773 4343 c9 -2 25 -2 35 0 9 3 1 5 -18 5 -19 0 -27 -2 -17 -5z"/>
<path d="M486 4325 c-3 -9 -6 -24 -5 -33 0 -9 5 -4 10 12 9 32 6 48 -5 21z"/>
<path d="M2964 4279 c2 -19 13 -51 26 -71 l22 -38 -52 0 c-40 0 -64 -7 -99
-28 -59 -36 -79 -43 -86 -32 -4 6 -15 10 -26 10 -27 0 -19 -24 9 -28 12 -2 22
-9 22 -15 0 -9 2 -9 8 -1 4 6 41 14 82 18 l75 8 -24 -26 c-29 -31 -16 -34 49
-11 50 17 84 21 60 5 -8 -5 -11 -12 -8 -16 4 -4 2 -16 -4 -28 -7 -11 -12 -47
-12 -80 -1 -54 1 -61 32 -87 18 -16 40 -29 50 -29 11 0 5 7 -16 20 -32 19 -33
23 -28 63 4 31 3 35 -3 17 l-9 -25 -1 25 c-1 28 15 50 36 50 7 0 13 -11 13
-25 0 -14 5 -25 10 -25 6 0 10 5 10 10 0 6 16 10 35 10 24 0 35 -5 35 -15 0
-8 9 -19 20 -25 15 -8 23 -6 39 12 27 28 34 20 16 -16 -20 -39 -19 -43 5 -16
11 13 20 28 20 34 0 16 17 -6 23 -29 4 -18 5 -18 6 3 1 26 21 30 21 4 0 -16
-38 -59 -50 -55 -3 1 -17 -7 -30 -18 -24 -18 -25 -19 -3 -19 50 0 103 76 122
175 l8 42 -51 28 c-28 16 -78 54 -111 84 -33 31 -52 47 -42 35 20 -24 23 -39
5 -28 -7 5 -25 7 -41 6 -16 -2 -36 3 -43 9 -8 6 -14 9 -14 5 0 -4 -13 0 -30 9
-31 16 -67 71 -50 77 5 2 1 16 -9 32 l-20 29 3 -34z m246 -179 c0 -11 -4 -20
-9 -20 -5 0 -7 9 -4 20 3 11 7 20 9 20 2 0 4 -9 4 -20z m-5 -50 c11 0 27 -5
35 -10 12 -8 12 -12 2 -18 -23 -15 -59 -1 -93 35 l-34 35 35 -21 c19 -11 44
-21 55 -21z m75 -50 c0 -5 -5 -10 -11 -10 -5 0 -7 5 -4 10 3 6 8 10 11 10 2 0
4 -4 4 -10z m-60 -67 c0 -7 -7 -13 -15 -13 -15 0 -21 31 -8 43 8 8 23 -12 23
-30z"/>
<path d="M2422 4280 c0 -14 2 -19 5 -12 2 6 2 18 0 25 -3 6 -5 1 -5 -13z"/>
<path d="M2491 4284 c0 -11 3 -14 6 -6 3 7 2 16 -1 19 -3 4 -6 -2 -5 -13z"/>
<path d="M721 4274 c0 -11 3 -14 6 -6 3 7 2 16 -1 19 -3 4 -6 -2 -5 -13z"/>
<path d="M1228 4273 c7 -3 16 -2 19 1 4 3 -2 6 -13 5 -11 0 -14 -3 -6 -6z"/>
<path d="M2432 4220 c0 -14 2 -19 5 -12 2 6 2 18 0 25 -3 6 -5 1 -5 -13z"/>
<path d="M3007 4229 c7 -7 15 -10 18 -7 3 3 -2 9 -12 12 -14 6 -15 5 -6 -5z"/>
<path d="M2878 4223 c7 -3 16 -2 19 1 4 3 -2 6 -13 5 -11 0 -14 -3 -6 -6z"/>
<path d="M2510 4206 c0 -8 4 -17 9 -20 5 -4 7 3 4 14 -6 23 -13 26 -13 6z"/>
<path d="M4164 4204 c3 -8 2 -13 -3 -9 -5 3 -18 -5 -28 -18 -21 -27 -54 -47
-98 -59 -25 -6 -23 -7 13 -4 23 2 42 0 42 -4 0 -12 -81 -70 -107 -77 -13 -3
-23 -12 -23 -20 0 -8 -13 -20 -30 -26 -16 -6 -30 -17 -30 -24 0 -7 -7 -13 -17
-13 -9 0 -14 -3 -10 -6 8 -8 44 5 62 22 13 14 15 6 16 -68 1 -75 2 -79 11 -43
5 22 8 57 6 78 -6 62 6 42 28 -51 12 -48 29 -103 38 -122 9 -19 14 -26 10 -15
-12 41 -52 201 -58 236 -6 35 -4 38 36 63 66 39 147 118 154 149 4 18 2 27 -6
27 -7 0 -10 -7 -6 -16z m-10 -39 c-4 -8 -11 -15 -16 -15 -6 0 -5 6 2 15 7 8
14 15 16 15 2 0 1 -7 -2 -15z"/>
<path d="M4251 4210 c0 -8 4 -24 9 -35 5 -13 9 -14 9 -5 0 8 -4 24 -9 35 -5
13 -9 14 -9 5z"/>
<path d="M4539 4195 c11 -16 35 -46 52 -65 26 -30 28 -30 10 -5 -11 17 -35 46
-52 65 -26 30 -28 30 -10 5z"/>
<path d="M2701 4175 c0 -31 2 -36 9 -23 6 10 7 25 1 40 -9 20 -10 18 -10 -17z"/>
<path d="M1833 4140 c0 -30 2 -43 4 -27 2 15 2 39 0 55 -2 15 -4 2 -4 -28z"/>
<path d="M2441 4174 c0 -11 3 -14 6 -6 3 7 2 16 -1 19 -3 4 -6 -2 -5 -13z"/>
<path d="M3110 4175 c7 -8 17 -15 22 -15 6 0 5 7 -2 15 -7 8 -17 15 -22 15 -6
0 -5 -7 2 -15z"/>
<path d="M481 4164 c0 -11 3 -14 6 -6 3 7 2 16 -1 19 -3 4 -6 -2 -5 -13z"/>
<path d="M711 4154 c0 -11 3 -14 6 -6 3 7 2 16 -1 19 -3 4 -6 -2 -5 -13z"/>
<path d="M4271 4137 c-2 -20 90 -316 131 -422 22 -59 33 -106 38 -180 l8 -100
-2 95 c-2 86 -8 112 -64 280 -34 102 -72 219 -86 260 -13 41 -25 71 -25 67z"/>
<path d="M2550 4110 c6 -11 13 -20 16 -20 2 0 0 9 -6 20 -6 11 -13 20 -16 20
-2 0 0 -9 6 -20z"/>
<path d="M520 4086 c0 -2 8 -10 18 -17 15 -13 16 -12 3 4 -13 16 -21 21 -21
13z"/>
<path d="M4630 4086 c0 -2 8 -10 18 -17 15 -13 16 -12 3 4 -13 16 -21 21 -21
13z"/>
<path d="M1813 4065 c-3 -9 -3 -18 -1 -21 3 -3 8 4 11 16 6 23 -1 27 -10 5z"/>
<path d="M2471 4075 c0 -5 6 -21 14 -35 8 -14 14 -20 14 -15 0 6 -6 21 -14 35
-8 14 -14 21 -14 15z"/>
<path d="M2035 4050 c-19 -8 -19 -9 3 -9 12 -1 22 4 22 9 0 6 -1 10 -2 9 -2 0
-12 -4 -23 -9z"/>
<path d="M1384 4012 c-43 -53 -52 -71 -19 -42 25 22 27 22 20 5 -4 -11 -13
-45 -20 -75 l-11 -54 -12 32 c-6 18 -9 40 -6 50 2 9 -2 4 -10 -13 -24 -48 -20
-133 9 -191 13 -27 36 -76 50 -109 l25 -60 -7 45 c-3 25 -12 51 -20 58 -7 7
-14 34 -14 60 -1 40 -2 43 -8 17 l-6 -30 -18 43 c-9 23 -17 66 -17 95 l1 52
16 -35 c10 -19 20 -48 24 -65 5 -23 7 -15 8 30 0 33 12 96 26 140 13 43 23 80
22 81 -1 2 -16 -14 -33 -34z"/>
<path d="M2600 4037 c0 -2 15 -16 33 -33 l32 -29 -29 33 c-28 30 -36 37 -36
29z"/>
<path d="M2790 4033 c0 -5 11 -21 25 -38 l25 -30 -21 38 c-20 36 -29 45 -29
30z"/>
<path d="M1859 4003 c-6 -16 -12 -53 -15 -83 -3 -53 -3 -52 11 17 7 40 16 77
20 83 3 5 4 10 0 10 -3 0 -10 -12 -16 -27z"/>
<path d="M2075 4020 c-8 -13 5 -13 25 0 13 8 13 10 -2 10 -9 0 -20 -4 -23 -10z"/>
<path d="M2510 3990 c6 -11 13 -20 16 -20 2 0 0 9 -6 20 -6 11 -13 20 -16 20
-2 0 0 -9 6 -20z"/>
<path d="M4330 3993 c0 -11 57 -93 65 -93 2 0 -10 21 -27 48 -39 59 -38 57
-38 45z"/>
<path d="M1648 3953 c-14 -21 -30 -49 -37 -63 l-12 -25 18 24 c26 35 65 101
60 101 -2 0 -15 -17 -29 -37z"/>
<path d="M2610 3982 c0 -13 37 -45 48 -41 5 2 -4 14 -20 27 -15 13 -28 19 -28
14z"/>
<path d="M2498 3968 c8 -9 30 -27 50 -38 l37 -22 -24 26 c-14 14 -27 24 -29
21 -3 -3 -15 3 -26 12 -18 16 -19 16 -8 1z"/>
<path d="M2139 3923 c-13 -16 -12 -17 4 -4 16 13 21 21 13 21 -2 0 -10 -8 -17
-17z"/>
<path d="M3828 3933 c6 -2 18 -2 25 0 6 3 1 5 -13 5 -14 0 -19 -2 -12 -5z"/>
<path d="M2211 3908 c-14 -23 -14 -23 8 -4 22 20 25 26 13 26 -4 0 -13 -10
-21 -22z"/>
<path d="M2659 3916 c15 -18 101 -80 101 -73 0 3 -26 24 -57 48 -32 23 -52 35
-44 25z"/>
<path d="M2730 3920 c8 -5 20 -10 25 -10 6 0 3 5 -5 10 -8 5 -19 10 -25 10 -5
0 -3 -5 5 -10z"/>
<path d="M3096 3907 c3 -10 9 -15 12 -12 3 3 0 11 -7 18 -10 9 -11 8 -5 -6z"/>
<path d="M3556 3904 c-5 -14 -4 -15 9 -4 17 14 19 20 6 20 -5 0 -12 -7 -15
-16z"/>
<path d="M2100 3899 c0 -5 5 -7 10 -4 6 3 10 8 10 11 0 2 -4 4 -10 4 -5 0 -10
-5 -10 -11z"/>
<path d="M4420 3865 c13 -14 26 -25 28 -25 3 0 -5 11 -18 25 -13 14 -26 25
-28 25 -3 0 5 -11 18 -25z"/>
<path d="M1885 3845 c7 -70 56 -166 92 -179 13 -5 13 -4 4 8 -6 8 -14 37 -18
65 -3 29 -13 57 -24 66 -16 16 -17 14 -12 -27 8 -61 -7 -40 -28 40 -13 48 -17
56 -14 27z"/>
<path d="M1656 3855 c-3 -9 -6 -22 -5 -28 0 -7 5 -1 10 12 5 13 8 26 5 28 -2
2 -6 -3 -10 -12z"/>
<path d="M3466 3855 c-9 -26 -7 -32 5 -12 6 10 9 21 6 23 -2 3 -7 -2 -11 -11z"/>
<path d="M1586 3843 c-6 -14 -5 -15 5 -6 7 7 10 15 7 18 -3 3 -9 -2 -12 -12z"/>
<path d="M1845 3815 c2 -27 9 -63 16 -80 7 -16 11 -34 10 -40 -2 -5 1 -7 5 -3
4 4 20 -4 36 -17 16 -14 33 -25 38 -25 4 0 10 -9 13 -20 7 -27 4 -26 -45 17
-24 21 -34 27 -23 13 11 -13 29 -32 40 -42 20 -17 20 -17 -5 -18 -20 0 -22 -2
-10 -10 8 -5 23 -10 33 -10 21 0 49 -24 40 -34 -4 -3 -1 -6 6 -6 8 0 11 6 7
16 -3 9 -9 33 -12 55 -4 23 -12 39 -20 39 -20 0 -83 58 -101 93 -8 17 -19 51
-24 76 l-8 46 4 -50z"/>
<path d="M1223 3801 c-17 -33 -18 -49 -12 -108 8 -62 36 -149 46 -139 2 2 -3
21 -13 42 -20 47 -23 178 -5 212 7 13 11 26 8 28 -2 3 -13 -13 -24 -35z"/>
<path d="M3040 3814 c25 -9 64 -15 87 -14 22 0 66 -8 97 -19 33 -11 56 -15 56
-9 0 6 11 8 26 4 16 -4 23 -3 20 3 -4 5 2 11 11 14 10 2 0 2 -22 0 -22 -2 -98
5 -170 16 -152 24 -165 25 -105 5z"/>
<path d="M4477 3809 c12 -13 33 -46 48 -74 19 -35 25 -41 21 -22 l-7 29 28
-20 c47 -34 66 -60 90 -130 21 -57 23 -61 19 -25 -3 23 -9 50 -12 60 -7 20 47
-32 64 -63 6 -11 13 -16 16 -13 10 9 -90 114 -192 200 -53 45 -87 72 -75 58z"/>
<path d="M1565 3809 c-4 -6 -5 -12 -2 -15 2 -3 7 2 10 11 7 17 1 20 -8 4z"/>
<path d="M1721 3793 c-7 -17 -11 -42 -8 -55 3 -19 5 -18 6 8 0 16 6 35 12 41
6 6 9 17 7 24 -2 7 -10 -1 -17 -18z"/>
<path d="M3952 3780 c0 -19 2 -27 5 -17 2 9 2 25 0 35 -3 9 -5 1 -5 -18z"/>
<path d="M3440 3768 c-1 -37 -30 -168 -44 -202 -33 -80 15 -49 51 32 12 29 23
60 22 70 -1 10 -4 7 -8 -8 -7 -23 -8 -23 -15 13 -4 20 -4 53 0 72 3 19 3 35 0
35 -3 0 -6 -6 -6 -12z"/>
<path d="M2334 3744 c-18 -15 -18 -15 3 -5 16 8 23 8 26 -2 3 -7 6 -5 6 6 1
21 -9 22 -35 1z"/>
<path d="M1631 3724 c0 -11 3 -14 6 -6 3 7 2 16 -1 19 -3 4 -6 -2 -5 -13z"/>
<path d="M3091 3702 c-28 -55 -27 -67 3 -18 18 31 24 35 29 21 12 -28 8 -80
-7 -100 -12 -17 -16 -18 -32 -5 -17 14 -18 14 -5 -2 17 -22 25 -22 45 -2 20
19 21 90 2 123 l-14 25 -21 -42z"/>
<path d="M1036 3710 c8 -29 25 -62 59 -109 14 -19 26 -46 26 -60 1 -17 3 -20
6 -8 5 19 18 22 28 7 3 -5 10 -10 15 -10 4 0 -7 15 -25 33 -33 33 -53 85 -56
142 -2 22 -4 18 -8 -15 l-6 -45 -23 45 c-12 25 -20 34 -16 20z"/>
<path d="M3941 3714 c0 -11 3 -14 6 -6 3 7 2 16 -1 19 -3 4 -6 -2 -5 -13z"/>
<path d="M1521 3694 c0 -11 3 -14 6 -6 3 7 2 16 -1 19 -3 4 -6 -2 -5 -13z"/>
<path d="M1632 3675 c0 -16 2 -22 5 -12 2 9 2 23 0 30 -3 6 -5 -1 -5 -18z"/>
<path d="M4906 3677 c3 -10 9 -15 12 -12 3 3 0 11 -7 18 -10 9 -11 8 -5 -6z"/>
<path d="M4551 3664 c0 -11 3 -14 6 -6 3 7 2 16 -1 19 -3 4 -6 -2 -5 -13z"/>
<path d="M1530 3666 c0 -12 29 -76 34 -76 3 0 -2 17 -11 38 -16 38 -23 50 -23
38z"/>
<path d="M2330 3663 c0 -4 5 -15 10 -23 8 -13 10 -13 10 2 0 9 -4 20 -10 23
-5 3 -10 3 -10 -2z"/>
<path d="M3822 3640 c0 -19 2 -27 5 -17 2 9 2 25 0 35 -3 9 -5 1 -5 -18z"/>
<path d="M1710 3645 c7 -8 16 -15 21 -15 5 0 6 7 3 15 -4 8 -13 15 -21 15 -13
0 -13 -3 -3 -15z"/>
<path d="M1501 3634 c0 -11 3 -14 6 -6 3 7 2 16 -1 19 -3 4 -6 -2 -5 -13z"/>
<path d="M4920 3641 c0 -6 4 -13 10 -16 6 -3 7 1 4 9 -7 18 -14 21 -14 7z"/>
<path d="M1850 3636 c0 -2 8 -10 18 -17 15 -13 16 -12 3 4 -13 16 -21 21 -21
13z"/>
<path d="M1190 3610 c0 -11 4 -20 9 -20 5 0 7 9 4 20 -3 11 -7 20 -9 20 -2 0
-4 -9 -4 -20z"/>
<path d="M1632 3610 c0 -8 4 -26 8 -40 6 -20 8 -21 8 -5 0 11 -3 29 -8 40 -5
12 -8 14 -8 5z"/>
<path d="M981 3594 c0 -11 3 -14 6 -6 3 7 2 16 -1 19 -3 4 -6 -2 -5 -13z"/>
<path d="M3902 3541 c-16 -50 -36 -84 -68 -120 -52 -58 -72 -66 -49 -20 9 17
14 33 12 35 -2 3 -10 -9 -17 -26 -7 -17 -21 -36 -30 -43 -19 -13 -90 -103 -90
-114 0 -3 16 15 36 40 20 25 46 49 58 53 61 19 135 108 158 190 7 28 12 34 19
23 7 -12 9 -12 8 1 0 8 -4 23 -8 33 -5 13 -13 0 -29 -52z"/>
<path d="M1487 3558 c-14 -95 -11 -154 7 -179 15 -19 17 -20 11 -4 -4 11 -9
54 -11 95 l-3 75 16 -49 c10 -26 33 -65 53 -85 19 -21 29 -30 23 -21 -7 9 -13
27 -13 41 0 25 -35 109 -45 109 -3 0 1 -13 10 -30 17 -33 21 -70 5 -54 -5 5
-17 38 -26 74 -9 36 -17 66 -19 68 -1 2 -5 -16 -8 -40z"/>
<path d="M1219 3564 c6 -12 34 -43 63 -70 29 -26 45 -44 35 -41 -10 4 -23 7
-27 7 -17 0 -80 62 -80 79 0 13 -2 13 -9 2 -6 -9 2 -23 28 -46 48 -43 73 -55
113 -55 50 0 64 -13 50 -44 -13 -30 -28 -33 -54 -9 -10 9 -18 11 -18 6 0 -6
14 -17 32 -26 31 -15 32 -15 48 16 9 18 14 36 12 40 -2 4 -23 17 -48 28 -24
12 -56 35 -71 53 -14 17 -29 31 -33 31 -4 0 -18 11 -29 25 -19 21 -21 22 -12
4z"/>
<path d="M1595 3549 c17 -20 37 -39 47 -42 9 -2 39 -36 66 -73 61 -84 103
-123 160 -148 27 -12 41 -24 38 -33 -4 -10 -1 -10 13 -1 17 10 13 14 -38 38
-31 15 -76 47 -100 73 -44 46 -121 153 -121 168 0 5 -7 6 -16 2 -9 -3 -28 6
-47 23 l-31 29 29 -36z"/>
<path d="M1610 3571 c0 -6 4 -13 10 -16 6 -3 7 1 4 9 -7 18 -14 21 -14 7z"/>
<path d="M3557 3543 c8 -50 13 -55 13 -10 0 20 -4 38 -9 42 -6 3 -7 -10 -4
-32z"/>
<path d="M1860 3544 c0 -6 7 -19 16 -30 14 -18 14 -18 3 6 -14 31 -19 36 -19
24z"/>
<path d="M3943 3526 c3 -8 11 -33 17 -56 6 -23 13 -40 16 -38 5 6 -25 108 -32
108 -4 0 -4 -6 -1 -14z"/>
<path d="M1410 3525 c0 -5 5 -17 10 -25 5 -8 10 -10 10 -5 0 6 -5 17 -10 25
-5 8 -10 11 -10 5z"/>
<path d="M4101 3458 c2 -61 3 -66 9 -33 l6 40 8 -37 c5 -21 6 -44 3 -52 -3 -8
0 -17 7 -19 10 -4 11 6 5 42 -9 58 -28 131 -34 131 -3 0 -4 -33 -4 -72z"/>
<path d="M2026 3502 c-3 -5 3 -35 13 -66 10 -31 17 -56 15 -56 -7 0 -120 73
-144 94 -14 11 -10 4 9 -16 18 -20 61 -51 95 -69 161 -85 236 -155 236 -218
l0 -22 -32 24 c-60 44 -63 40 -12 -14 28 -30 56 -65 63 -79 6 -14 19 -38 28
-55 9 -16 20 -46 24 -65 7 -33 7 -32 5 10 -1 28 -12 60 -27 85 -14 22 -29 62
-32 89 -4 27 -19 69 -32 93 -14 24 -23 43 -19 43 8 0 55 -35 94 -70 14 -12 45
-38 70 -58 92 -74 125 -107 137 -135 7 -16 24 -42 37 -58 19 -23 25 -25 30
-13 3 9 6 23 6 32 0 13 -2 14 -9 4 -6 -11 -13 -7 -28 15 -35 49 -36 53 -14 53
14 0 23 -9 27 -25 3 -14 10 -25 15 -25 5 0 4 12 -2 26 -5 15 -8 28 -7 29 4 3
131 25 144 25 15 0 51 -69 59 -112 7 -36 -5 -52 -20 -28 -3 6 -11 10 -16 10
-6 0 -7 -4 -4 -10 3 -5 1 -10 -5 -10 -7 0 -10 -7 -6 -15 3 -10 -6 -23 -29 -38
-19 -12 -35 -26 -35 -30 0 -5 -7 -15 -15 -24 -45 -44 -134 -198 -122 -209 3
-3 12 14 21 37 40 99 145 212 239 258 34 17 72 32 84 34 12 2 26 7 30 11 5 5
-4 6 -19 2 -16 -3 -28 -5 -28 -3 0 2 31 50 68 106 61 91 74 105 121 127 76 35
94 31 51 -10 -19 -18 -48 -48 -65 -67 -16 -19 2 -4 40 34 44 42 79 67 93 67
12 0 22 -2 22 -4 0 -2 -11 -28 -24 -57 -13 -30 -26 -70 -30 -89 -3 -19 7 0 22
42 32 85 46 108 71 108 9 1 3 7 -13 13 l-30 13 37 28 c21 16 40 26 44 22 3 -3
15 1 25 11 10 9 21 14 24 11 3 -3 -9 -16 -27 -29 -18 -13 -29 -18 -25 -11 13
21 -10 13 -34 -13 -13 -14 -20 -25 -16 -25 22 0 88 45 131 90 47 48 48 50 14
28 -20 -12 -34 -27 -31 -32 3 -5 0 -6 -7 -2 -9 6 -8 13 6 28 15 17 11 16 -30
-6 -35 -18 -58 -24 -80 -20 -21 4 -28 3 -19 -4 17 -12 9 -18 -98 -75 -128 -68
-363 -135 -538 -153 l-57 -6 -75 58 c-175 134 -317 266 -360 332 -16 24 -31
39 -34 34z m124 -165 c20 -15 26 -24 15 -20 -35 12 -79 50 -99 85 l-18 33 33
-35 c19 -19 50 -48 69 -63z m754 -277 c-28 -41 -53 -69 -62 -68 -8 2 -18 -7
-23 -20 -6 -15 -5 -21 1 -17 6 3 10 13 10 21 0 8 4 13 10 9 13 -8 2 -32 -17
-40 -21 -8 -34 14 -22 37 5 9 8 23 7 30 -2 7 3 12 10 11 6 -2 12 1 12 6 0 15
51 66 62 63 6 -2 17 6 25 18 8 11 18 20 24 20 5 0 -12 -32 -37 -70z"/>
<path d="M2861 3049 c-13 -17 -21 -33 -18 -35 3 -3 15 9 27 26 29 41 20 49 -9
9z"/>
<path d="M4771 3505 c2 -5 22 -44 43 -85 47 -91 59 -180 32 -245 -13 -33 -13
-36 -1 -21 38 50 31 164 -16 266 -17 39 -39 76 -47 83 -8 6 -13 8 -11 2z"/>
<path d="M1620 3431 c-5 -66 -3 -74 15 -84 17 -9 18 -8 8 4 -7 8 -13 46 -15
84 l-3 70 -5 -74z"/>
<path d="M3349 3483 c-13 -15 -12 -15 11 -3 34 17 36 20 18 20 -9 0 -22 -7
-29 -17z"/>
<path d="M5046 3465 c-4 -21 -14 -52 -23 -68 -8 -16 -10 -26 -5 -23 16 9 44
91 40 112 -3 12 -7 4 -12 -21z"/>
<path d="M3926 3440 c-10 -25 -11 -36 -2 -46 8 -9 12 -2 17 30 8 52 3 58 -15
16z"/>
<path d="M4071 3435 c-1 -11 -4 -31 -6 -45 l-6 -25 11 25 c6 13 9 33 7 45 -4
19 -4 19 -6 0z"/>
<path d="M3301 3409 c-13 -17 -42 -39 -64 -50 -23 -10 -36 -19 -28 -19 34 0
134 80 119 96 -3 2 -15 -10 -27 -27z"/>
<path d="M2418 3423 c7 -3 16 -2 19 1 4 3 -2 6 -13 5 -11 0 -14 -3 -6 -6z"/>
<path d="M4489 3413 c-13 -16 -12 -17 4 -4 9 7 17 15 17 17 0 8 -8 3 -21 -13z"/>
<path d="M3395 3409 c-4 -6 -5 -12 -2 -15 2 -3 7 2 10 11 7 17 1 20 -8 4z"/>
<path d="M4431 3398 c-2 -43 -50 -157 -89 -213 -20 -27 -28 -44 -19 -37 25 21
75 103 92 152 9 25 26 55 38 68 15 17 17 21 5 17 -12 -5 -18 0 -21 17 -4 21
-4 20 -6 -4z"/>
<path d="M2484 3391 c21 -23 26 -26 26 -11 0 5 -10 15 -22 21 -23 12 -23 12
-4 -10z"/>
<path d="M3456 3393 c-6 -14 -5 -15 5 -6 7 7 10 15 7 18 -3 3 -9 -2 -12 -12z"/>
<path d="M3745 3389 c-4 -6 -5 -12 -2 -15 2 -3 7 2 10 11 7 17 1 20 -8 4z"/>
<path d="M3913 3345 c0 -27 2 -38 4 -22 2 15 2 37 0 50 -2 12 -4 0 -4 -28z"/>
<path d="M4292 3360 c0 -19 2 -27 5 -17 2 9 2 25 0 35 -3 9 -5 1 -5 -18z"/>
<path d="M4029 3343 c-2 -24 -3 -43 -2 -43 1 0 10 14 19 31 8 17 11 28 6 25
-6 -3 -12 2 -14 11 -3 10 -6 -1 -9 -24z"/>
<path d="M4991 3344 c0 -11 3 -14 6 -6 3 7 2 16 -1 19 -3 4 -6 -2 -5 -13z"/>
<path d="M1531 3325 c15 -17 28 -35 30 -42 2 -7 9 -9 14 -5 7 4 -5 21 -30 42
-36 30 -37 31 -14 5z"/>
<path d="M3135 3340 c3 -5 11 -10 16 -10 6 0 7 5 4 10 -3 6 -11 10 -16 10 -6
0 -7 -4 -4 -10z"/>
<path d="M4104 3342 c-5 -4 -16 -22 -23 -40 -21 -51 -50 -82 -77 -82 -14 0
-24 -6 -24 -14 0 -8 -10 -22 -22 -30 -12 -9 -17 -16 -11 -16 7 0 15 5 18 10 4
6 11 8 16 4 6 -3 13 3 16 14 3 12 14 22 25 24 13 2 34 27 59 71 21 37 37 67
36 67 -1 0 -7 -4 -13 -8z"/>
<path d="M1313 3290 c0 -25 2 -35 4 -22 2 12 2 32 0 45 -2 12 -4 2 -4 -23z"/>
<path d="M1368 3308 c-2 -13 0 -41 3 -63 5 -26 3 -43 -4 -48 -8 -6 -7 -7 3 -4
8 2 14 13 13 23 -2 10 -3 40 -4 67 -1 51 -6 61 -11 25z"/>
<path d="M3390 3307 c-14 -12 -37 -30 -50 -40 -24 -17 -24 -17 8 0 18 10 43
28 54 41 27 28 21 28 -12 -1z"/>
<path d="M3990 3300 c0 -6 -4 -9 -9 -5 -5 3 -12 1 -16 -4 -3 -6 4 -8 16 -6 27
5 33 11 20 20 -6 3 -11 1 -11 -5z"/>
<path d="M1816 3273 c-6 -14 -5 -15 5 -6 7 7 10 15 7 18 -3 3 -9 -2 -12 -12z"/>
<path d="M1451 3264 c0 -11 3 -14 6 -6 3 7 2 16 -1 19 -3 4 -6 -2 -5 -13z"/>
<path d="M4132 3255 c0 -16 2 -22 5 -12 2 9 2 23 0 30 -3 6 -5 -1 -5 -18z"/>
<path d="M1630 3250 c0 -11 2 -20 4 -20 2 0 6 9 9 20 3 11 1 20 -4 20 -5 0 -9
-9 -9 -20z"/>
<path d="M2010 3230 c14 -11 28 -20 31 -20 4 0 16 -19 28 -42 12 -24 21 -37
21 -30 0 34 -63 111 -90 111 -10 1 -6 -6 10 -19z"/>
<path d="M3280 3240 c-8 -5 -10 -10 -5 -10 6 0 17 5 25 10 8 5 11 10 5 10 -5
0 -17 -5 -25 -10z"/>
<path d="M3475 3239 c-4 -6 -5 -12 -2 -15 2 -3 7 2 10 11 7 17 1 20 -8 4z"/>
<path d="M1429 3223 c-13 -16 -12 -17 4 -4 16 13 21 21 13 21 -2 0 -10 -8 -17
-17z"/>
<path d="M1249 3213 c-13 -16 -12 -17 4 -4 9 7 17 15 17 17 0 8 -8 3 -21 -13z"/>
<path d="M1920 3215 c0 -8 5 -15 10 -15 6 0 10 7 10 15 0 8 -4 15 -10 15 -5 0
-10 -7 -10 -15z"/>
<path d="M2098 3223 c8 -3 22 -19 33 -37 10 -17 19 -25 19 -18 0 22 -32 62
-49 61 -11 0 -12 -2 -3 -6z"/>
<path d="M1301 3129 c0 -46 4 -104 8 -129 5 -27 6 5 3 80 -6 144 -12 173 -11
49z"/>
<path d="M996 3173 c-6 -14 -5 -15 5 -6 7 7 10 15 7 18 -3 3 -9 -2 -12 -12z"/>
<path d="M3847 3169 c7 -7 15 -10 18 -7 3 3 -2 9 -12 12 -14 6 -15 5 -6 -5z"/>
<path d="M2151 3134 c0 -11 3 -14 6 -6 3 7 2 16 -1 19 -3 4 -6 -2 -5 -13z"/>
<path d="M4884 3118 l-19 -23 23 19 c12 11 22 21 22 23 0 8 -8 2 -26 -19z"/>
<path d="M1932 3105 c0 -16 2 -22 5 -12 2 9 2 23 0 30 -3 6 -5 -1 -5 -18z"/>
<path d="M2310 3124 c0 -6 7 -33 15 -59 8 -27 12 -52 9 -56 -2 -4 4 -13 15
-18 17 -10 18 -19 14 -95 l-6 -85 33 -30 c19 -16 37 -28 42 -25 5 3 1 12 -9
20 -17 13 -17 13 4 14 12 0 25 4 28 10 3 6 -1 7 -10 4 -8 -4 -22 0 -31 7 -13
10 -15 28 -10 93 3 51 2 72 -3 56 -5 -14 -9 -46 -10 -72 -1 -53 -21 -67 -21
-15 0 50 32 197 42 197 6 0 8 -14 4 -33 -3 -18 -3 -37 1 -41 5 -4 14 -24 20
-44 l12 -37 -4 40 -5 40 14 -31 c7 -17 17 -45 21 -63 4 -18 9 -30 11 -28 3 2
1 23 -5 45 -8 38 -7 41 9 32 10 -6 31 -10 47 -9 22 0 16 4 -24 16 -48 14 -53
19 -69 62 -28 74 -36 79 -55 35 l-16 -39 -31 60 c-17 33 -31 55 -32 49z m66
-131 c-9 -9 -22 7 -31 37 -7 25 -7 25 15 -3 12 -15 19 -31 16 -34z"/>
<path d="M3890 3120 c8 -5 26 -9 40 -9 l25 1 -25 8 c-14 4 -32 8 -40 9 -13 1
-13 0 0 -9z"/>
<path d="M4279 3103 l-24 -28 28 24 c25 23 32 31 24 31 -2 0 -14 -12 -28 -27z"/>
<path d="M4301 3085 c-22 -24 -41 -50 -41 -57 0 -7 7 -1 17 12 9 14 30 40 46
58 17 17 28 32 25 32 -3 0 -24 -20 -47 -45z"/>
<path d="M4784 3114 c-18 -14 -18 -14 6 -3 31 14 36 19 24 19 -6 0 -19 -7 -30
-16z"/>
<path d="M3690 3086 c-22 -37 -28 -76 -16 -114 5 -15 13 -21 22 -18 8 3 14 -1
14 -9 0 -7 5 -17 11 -20 5 -4 3 10 -6 32 -9 21 -20 40 -25 41 -18 6 -10 59 11
86 12 15 19 29 16 32 -2 3 -15 -11 -27 -30z"/>
<path d="M440 3084 c0 -16 -7 -39 -15 -50 -13 -20 -13 -21 12 -16 17 3 30 -1
39 -12 11 -15 13 -14 19 13 4 17 11 33 16 36 17 11 9 25 -13 25 -12 0 -30 7
-40 17 -17 15 -18 15 -18 -13z m50 -34 c0 -13 -19 -22 -35 -16 -8 3 -11 13 -8
25 4 17 9 19 24 10 10 -5 19 -14 19 -19z"/>
<path d="M2136 3075 c-10 -44 -59 -110 -84 -113 -21 -3 -32 -22 -13 -22 34 0
119 120 108 152 -2 7 -7 0 -11 -17z"/>
<path d="M3469 3083 c-13 -16 -12 -17 4 -4 16 13 21 21 13 21 -2 0 -10 -8 -17
-17z"/>
<path d="M558 3072 c-3 -10 1 -23 9 -30 11 -11 13 -8 13 12 0 30 -16 43 -22
18z"/>
<path d="M3385 3069 c-4 -6 -5 -12 -2 -15 2 -3 7 2 10 11 7 17 1 20 -8 4z"/>
<path d="M4115 3015 c-60 -62 -147 -124 -175 -125 -8 0 -28 -12 -45 -26 l-30
-25 30 11 c16 6 46 21 65 33 48 30 60 37 121 74 30 18 48 33 40 33 -8 0 2 17
23 40 20 22 36 42 36 45 0 8 -1 7 -65 -60z"/>
<path d="M4658 3073 c7 -3 16 -2 19 1 4 3 -2 6 -13 5 -11 0 -14 -3 -6 -6z"/>
<path d="M3384 3010 c-55 -56 -84 -76 -68 -47 4 7 3 9 -2 4 -5 -5 -9 -12 -9
-16 0 -3 -19 -24 -42 -44 -23 -21 -53 -61 -67 -88 l-25 -50 -15 28 c-9 16 -15
21 -16 12 0 -18 52 -103 72 -115 8 -5 7 1 -4 19 -18 26 -24 78 -11 90 9 9 48
-17 98 -65 40 -38 160 -106 171 -96 3 3 -9 11 -27 17 -18 6 -30 13 -27 16 14
14 97 -32 173 -97 47 -40 85 -76 85 -79 0 -3 -24 -51 -54 -106 -29 -55 -65
-129 -80 -166 -48 -121 -30 -251 40 -277 37 -14 90 13 114 59 l18 36 -1 -85
c-2 -85 26 -258 58 -368 14 -45 21 -54 53 -67 20 -9 40 -21 44 -28 17 -26 7
14 -22 94 -72 197 -90 320 -71 484 5 45 3 121 -5 210 -7 77 -14 148 -14 158 0
33 22 12 42 -38 35 -90 138 -453 138 -489 0 -67 60 -309 68 -273 2 9 13 17 24
17 24 0 23 2 -15 130 -23 78 -48 214 -61 331 l-5 46 33 -33 c42 -42 89 -47
107 -11 6 12 13 23 15 25 1 2 25 -14 54 -35 85 -63 138 -173 142 -292 l1 -56
6 54 c5 49 7 53 20 37 16 -19 63 -46 81 -46 5 0 10 12 10 26 0 14 -4 23 -9 20
-5 -3 -9 4 -9 17 0 41 -22 120 -37 137 -13 15 -12 19 11 41 17 16 23 30 20 45
-3 11 3 38 14 59 24 47 26 124 5 165 -9 17 -18 30 -21 30 -32 0 -136 -98 -154
-146 -15 -38 -27 -21 -32 45 -2 33 -12 70 -22 86 l-19 28 -14 -28 c-9 -16 -16
-59 -16 -101 -1 -41 -5 -74 -9 -74 -4 0 -14 13 -23 29 -25 49 -173 230 -261
320 -82 83 -82 84 -63 104 14 16 19 34 18 76 l-2 56 -6 -56 c-6 -57 -30 -99
-57 -99 -23 0 -63 52 -69 89 -3 21 3 82 15 145 22 111 22 157 0 67 l-12 -51
-31 16 c-18 9 -40 26 -50 38 -10 11 -15 14 -11 6 4 -8 16 -25 28 -38 l20 -23
-36 4 c-48 5 -84 30 -110 73 -27 46 -33 43 -9 -3 10 -21 22 -54 26 -73 10 -48
64 -162 74 -156 8 6 56 -53 49 -60 -3 -2 -27 12 -54 31 -39 28 -58 35 -95 35
-55 0 -143 42 -208 99 l-44 40 103 100 104 100 12 -27 c11 -26 11 -26 16 18 3
25 4 46 3 47 -1 2 -28 -24 -61 -57z m225 -178 c39 14 53 4 40 -29 -6 -15 -11
-61 -12 -101 -2 -70 -3 -71 -19 -50 -9 13 -28 37 -42 53 -14 17 -34 50 -43 75
-9 25 -20 50 -25 57 -7 8 3 8 34 -2 28 -8 51 -9 67 -3z m-79 -178 c22 -15 40
-31 40 -37 0 -6 -10 -1 -22 10 -13 11 -34 27 -48 36 -13 10 -21 17 -17 17 4 0
25 -12 47 -26z m197 -80 c-3 -3 -12 -4 -19 -1 -8 3 -5 6 6 6 11 1 17 -2 13 -5z
m33 -14 c0 -5 -2 -10 -4 -10 -3 0 -8 5 -11 10 -3 6 -1 10 4 10 6 0 11 -4 11
-10z m-35 -157 c-7 -29 -5 -39 7 -35 5 1 7 -2 3 -8 -7 -12 -31 -13 -38 -2 -2
4 -2 0 1 -8 9 -30 -2 -126 -30 -258 -11 -52 -47 -97 -72 -89 -19 6 -26 61 -15
117 13 65 71 214 98 250 10 14 21 43 26 65 7 38 8 39 17 15 5 -13 6 -35 3 -47z
m268 -98 c33 -39 36 -45 18 -45 -13 0 -27 12 -36 30 -9 17 -13 30 -9 30 4 0 1
7 -6 15 -7 8 -11 15 -8 15 2 0 21 -20 41 -45z m169 -17 c-6 -60 -22 -73 -22
-17 0 43 5 59 19 59 4 0 5 -19 3 -42z m-169 -61 c16 -27 24 -47 19 -43 -11 7
-82 124 -81 134 0 9 28 -31 62 -91z m409 68 c0 -5 -5 -11 -10 -13 -5 -1 -9 4
-9 13 0 9 4 14 9 13 5 -2 10 -8 10 -13z m-212 -33 c0 -15 -2 -15 -10 -2 -13
20 -13 33 0 25 6 -3 10 -14 10 -23z m115 -12 c-3 -5 -16 -15 -28 -21 -21 -10
-21 -9 2 10 25 23 36 27 26 11z m-723 -25 c3 -13 2 -22 -3 -20 -4 3 -10 -4
-14 -15 -3 -11 -13 -20 -20 -20 -8 0 -12 6 -10 13 19 54 26 67 34 67 5 0 11
-11 13 -25z m462 17 c3 -5 -1 -9 -9 -9 -8 0 -12 4 -9 9 3 4 7 8 9 8 2 0 6 -4
9 -8z m133 -39 c-3 -10 -5 -4 -5 12 0 17 2 24 5 18 2 -7 2 -21 0 -30z m221 -4
c-6 -16 -12 -28 -14 -26 -8 7 8 67 17 62 4 -3 3 -19 -3 -36z m-97 -34 c-9 -50
-44 -113 -63 -114 -13 -1 -21 47 -14 84 5 22 19 44 43 64 20 17 39 29 41 27 2
-2 -1 -30 -7 -61z m28 21 c-9 -8 -10 -7 -5 7 3 10 7 24 7 30 1 7 3 4 6 -7 3
-10 -1 -23 -8 -30z m-159 -36 c4 0 10 6 13 13 3 8 7 6 12 -5 4 -10 4 -25 1
-34 -6 -15 -8 -15 -26 1 -22 20 -35 69 -23 87 5 8 9 0 11 -24 2 -21 7 -38 12
-38z m183 5 c12 -11 16 -12 20 -2 2 6 8 8 13 4 12 -11 -16 -27 -34 -19 -10 3
-13 1 -8 -6 4 -7 1 -12 -8 -12 -9 0 -16 -4 -16 -10 0 -5 3 -9 8 -9 39 6 42
-15 5 -47 -25 -22 -83 -34 -83 -17 0 3 11 21 25 39 14 18 25 35 25 38 0 15 21
56 29 56 5 0 16 -7 24 -15z m-808 -4 c3 -5 1 -12 -5 -16 -5 -3 -10 1 -10 9 0
18 6 21 15 7z m202 -123 c-3 -8 -6 -5 -6 6 -1 11 2 17 5 13 3 -3 4 -12 1 -19z
m567 -19 c14 -7 27 -18 30 -26 3 -8 1 -11 -4 -8 -6 3 -10 2 -10 -4 0 -5 8 -15
18 -20 23 -14 6 -14 -21 0 -28 15 -67 50 -67 61 0 11 25 10 54 -3z m12 -90
c18 -35 18 -40 -1 -32 -16 6 -45 53 -45 74 0 17 28 -9 46 -42z m54 -30 c0 -6
-4 -7 -10 -4 -5 3 -10 11 -10 16 0 6 5 7 10 4 6 -3 10 -11 10 -16z m-30 -29
c0 -5 -2 -10 -4 -10 -3 0 -8 5 -11 10 -3 6 -1 10 4 10 6 0 11 -4 11 -10z"/>
<path d="M1651 3044 c0 -11 3 -14 6 -6 3 7 2 16 -1 19 -3 4 -6 -2 -5 -13z"/>
<path d="M2619 3007 c20 -33 20 -33 1 -65 -25 -41 -25 -50 0 -27 11 10 20 24
20 32 0 16 12 17 28 1 25 -25 11 6 -18 39 -16 18 -30 38 -30 43 0 6 -5 10 -11
10 -6 0 -1 -15 10 -33z"/>
<path d="M3344 3008 l-19 -23 23 19 c21 18 27 26 19 26 -2 0 -12 -10 -23 -22z"/>
<path d="M3113 2965 c0 -27 2 -38 4 -22 2 15 2 37 0 50 -2 12 -4 0 -4 -28z"/>
<path d="M4294 2988 l-19 -23 23 19 c21 18 27 26 19 26 -2 0 -12 -10 -23 -22z"/>
<path d="M2700 2980 c0 -5 5 -10 11 -10 5 0 7 5 4 10 -3 6 -8 10 -11 10 -2 0
-4 -4 -4 -10z"/>
<path d="M2927 2953 c-4 -3 -7 -13 -7 -22 1 -13 3 -13 11 2 11 19 8 33 -4 20z"/>
<path d="M5247 2943 c-15 -15 -21 -16 -38 -5 -18 12 -19 11 -10 -6 7 -14 5
-27 -11 -53 -19 -32 -19 -33 -1 -16 28 24 46 21 65 -10 10 -16 18 -23 18 -16
0 6 -4 15 -10 18 -14 9 -13 78 2 93 7 7 10 12 7 12 -3 0 -13 -8 -22 -17z"/>
<path d="M1320 2934 c0 -10 5 -26 10 -34 8 -11 9 -7 4 15 -8 37 -14 45 -14 19z"/>
<path d="M1473 2885 c0 -38 2 -53 4 -32 2 20 2 52 0 70 -2 17 -4 1 -4 -38z"/>
<path d="M1958 2943 c7 -3 16 -2 19 1 4 3 -2 6 -13 5 -11 0 -14 -3 -6 -6z"/>
<path d="M1155 2920 c10 -11 20 -20 23 -20 3 0 -3 9 -13 20 -10 11 -20 20 -23
20 -3 0 3 -9 13 -20z"/>
<path d="M2301 2897 c-1 -57 -19 -69 -65 -44 l-31 17 24 -20 c31 -26 66 -25
85 2 17 25 22 53 7 43 -5 -3 -12 7 -14 22 -2 17 -5 10 -6 -20z"/>
<path d="M2695 2930 c3 -5 8 -10 11 -10 2 0 4 5 4 10 0 6 -5 10 -11 10 -5 0
-7 -4 -4 -10z"/>
<path d="M4233 2900 c0 -25 2 -35 4 -22 2 12 2 32 0 45 -2 12 -4 2 -4 -23z"/>
<path d="M2535 2894 l-30 -25 29 4 c22 3 30 9 31 25 1 12 1 22 1 22 -1 -1 -14
-12 -31 -26z"/>
<path d="M1945 2900 c3 -5 11 -10 16 -10 6 0 7 5 4 10 -3 6 -11 10 -16 10 -6
0 -7 -4 -4 -10z"/>
<path d="M2452 2895 c0 -11 4 -33 8 -50 7 -27 8 -27 8 -5 0 14 -4 36 -8 50 -6
20 -8 21 -8 5z"/>
<path d="M3701 2905 c0 -5 8 -37 19 -70 11 -33 17 -44 13 -25 -6 38 -31 111
-32 95z"/>
<path d="M3802 2889 c-7 -11 -11 -23 -9 -25 7 -7 29 24 25 36 -2 6 -9 1 -16
-11z"/>
<path d="M2075 2891 c-67 -14 -119 -61 -100 -91 8 -13 -1 -13 -28 1 -20 10
-20 10 -7 -4 8 -9 29 -19 45 -22 18 -4 25 -3 18 2 -7 5 -14 20 -15 33 -4 28
50 70 91 71 14 0 35 4 46 9 l20 9 -20 -1 c-11 0 -33 -3 -50 -7z"/>
<path d="M2200 2889 c0 -5 5 -7 10 -4 6 3 10 8 10 11 0 2 -4 4 -10 4 -5 0 -10
-5 -10 -11z"/>
<path d="M4051 2884 c0 -11 3 -14 6 -6 3 7 2 16 -1 19 -3 4 -6 -2 -5 -13z"/>
<path d="M3743 2863 c3 -10 8 -28 12 -40 3 -13 13 -23 21 -23 13 0 13 2 0 16
-18 18 -20 31 -6 36 6 2 1 9 -11 16 -18 12 -20 11 -16 -5z"/>
<path d="M1691 2854 c0 -11 3 -14 6 -6 3 7 2 16 -1 19 -3 4 -6 -2 -5 -13z"/>
<path d="M2430 2835 c-8 -9 -8 -15 -2 -15 12 0 26 19 19 26 -2 2 -10 -2 -17
-11z"/>
<path d="M3835 2836 c-23 -25 -26 -40 -4 -19 12 12 21 24 18 27 -2 2 -9 -1
-14 -8z"/>
<path d="M4061 2834 c0 -11 3 -14 6 -6 3 7 2 16 -1 19 -3 4 -6 -2 -5 -13z"/>
<path d="M1693 2815 c-9 -10 -8 -14 8 -18 13 -3 19 -15 20 -34 1 -22 3 -24 6
-6 2 12 -2 33 -9 46 -10 20 -15 23 -25 12z"/>
<path d="M2080 2816 c0 -2 7 -6 15 -10 8 -3 15 -1 15 4 0 6 -7 10 -15 10 -8 0
-15 -2 -15 -4z"/>
<path d="M3682 2800 c0 -14 2 -19 5 -12 2 6 2 18 0 25 -3 6 -5 1 -5 -13z"/>
<path d="M4070 2807 c0 -23 53 -95 78 -106 l27 -11 -25 21 c-14 12 -37 40 -52
63 -16 22 -28 37 -28 33z"/>
<path d="M1870 2793 c0 -6 6 -16 14 -23 8 -6 12 -19 9 -28 -5 -13 -3 -14 7 -5
10 9 8 17 -9 39 -11 15 -21 22 -21 17z"/>
<path d="M2130 2790 c-20 -12 -10 -19 14 -10 11 3 15 9 10 13 -6 3 -16 2 -24
-3z"/>
<path d="M2459 2783 c-13 -16 -12 -17 4 -4 9 7 17 15 17 17 0 8 -8 3 -21 -13z"/>
<path d="M4030 2773 c0 -6 8 -17 18 -24 16 -13 16 -13 2 6 -8 11 -16 22 -17
24 -2 2 -3 0 -3 -6z"/>
<path d="M1927 2739 c7 -7 15 -10 18 -7 3 3 -2 9 -12 12 -14 6 -15 5 -6 -5z"/>
<path d="M2425 2707 c-8 -44 -2 -67 20 -67 20 0 20 59 1 85 -13 19 -15 17 -21
-18z m25 -21 c0 -14 -4 -28 -10 -31 -6 -4 -10 7 -10 24 0 17 5 31 10 31 6 0
10 -11 10 -24z"/>
<path d="M1993 2723 c9 -2 23 -2 30 0 6 3 -1 5 -18 5 -16 0 -22 -2 -12 -5z"/>
<path d="M2161 2718 c0 -9 -4 -25 -7 -35 -5 -17 -5 -17 6 0 6 10 9 25 7 35 -4
15 -5 15 -6 0z"/>
<path d="M3742 2705 c-7 -8 -8 -15 -3 -15 5 0 12 -10 14 -22 3 -14 5 -9 6 15
1 42 1 42 -17 22z"/>
<path d="M4279 2693 c12 -18 30 -33 39 -33 9 0 12 3 7 8 -6 4 -23 18 -39 32
l-30 25 23 -32z"/>
<path d="M3671 2694 c0 -11 3 -14 6 -6 3 7 2 16 -1 19 -3 4 -6 -2 -5 -13z"/>
<path d="M2920 2681 c0 -6 4 -13 10 -16 6 -3 7 1 4 9 -7 18 -14 21 -14 7z"/>
<path d="M3700 2671 c0 -17 18 -21 24 -6 3 9 0 15 -9 15 -8 0 -15 -4 -15 -9z"/>
<path d="M1609 2653 c-13 -16 -12 -17 4 -4 16 13 21 21 13 21 -2 0 -10 -8 -17
-17z"/>
<path d="M1348 2653 c7 -3 16 -2 19 1 4 3 -2 6 -13 5 -11 0 -14 -3 -6 -6z"/>
<path d="M2940 2646 c0 -2 27 -27 60 -56 33 -29 58 -45 54 -37 -5 13 -114 102
-114 93z"/>
<path d="M3680 2646 c0 -2 8 -10 18 -17 15 -13 16 -12 3 4 -13 16 -21 21 -21
13z"/>
<path d="M1473 2608 c1 -20 5 -34 9 -30 4 4 3 21 -1 37 -9 30 -9 30 -8 -7z"/>
<path d="M3172 2600 c0 -14 2 -19 5 -12 2 6 2 18 0 25 -3 6 -5 1 -5 -13z"/>
<path d="M1945 2590 c10 -11 20 -20 23 -20 3 0 -3 9 -13 20 -10 11 -20 20 -23
20 -3 0 3 -9 13 -20z"/>
<path d="M1235 2591 c11 -4 23 -19 26 -32 l7 -24 1 26 c1 26 -15 40 -42 38 -7
0 -3 -4 8 -8z"/>
<path d="M2087 2593 c-4 -3 -28 -12 -54 -19 -30 -8 -39 -13 -23 -13 24 0 116
37 94 38 -6 1 -14 -2 -17 -6z"/>
<path d="M1683 2550 c0 -25 2 -35 4 -22 2 12 2 32 0 45 -2 12 -4 2 -4 -23z"/>
<path d="M3174 2526 c-3 -14 -1 -32 4 -42 7 -13 9 -7 8 24 -1 48 -3 52 -12 18z"/>
<path d="M1480 2526 c0 -2 8 -10 18 -17 15 -13 16 -12 3 4 -13 16 -21 21 -21
13z"/>
<path d="M2481 2494 c0 -11 3 -14 6 -6 3 7 2 16 -1 19 -3 4 -6 -2 -5 -13z"/>
<path d="M1286 2480 c3 -14 11 -32 16 -40 6 -10 7 -7 2 10 -3 14 -11 32 -16
40 -6 10 -7 7 -2 -10z"/>
<path d="M1692 2475 c0 -16 2 -22 5 -12 2 9 2 23 0 30 -3 6 -5 -1 -5 -18z"/>
<path d="M1604 2426 c11 -9 36 -15 55 -15 l36 2 -40 6 c-22 4 -47 10 -55 15
-8 4 -6 0 4 -8z"/>
<path d="M3025 2404 c-29 -18 -33 -24 -15 -19 14 4 34 16 45 26 26 25 18 23
-30 -7z"/>
<path d="M1310 2411 c0 -5 7 -15 17 -22 15 -13 15 -12 4 9 -12 23 -21 28 -21
13z"/>
<path d="M3199 2381 c-19 -20 -46 -44 -60 -54 -23 -18 -23 -18 9 0 34 18 99
80 91 86 -2 2 -20 -12 -40 -32z"/>
<path d="M1707 2403 c-4 -6 0 -24 8 -39 15 -30 18 -18 6 26 -4 15 -10 20 -14
13z"/>
<path d="M4473 2360 c0 -25 2 -35 4 -22 2 12 2 32 0 45 -2 12 -4 2 -4 -23z"/>
<path d="M2930 2386 c0 -2 8 -10 18 -17 15 -13 16 -12 3 4 -13 16 -21 21 -21
13z"/>
<path d="M2422 2307 c-30 -52 -61 -89 -108 -128 -76 -63 -200 -141 -217 -137
-19 4 -111 -77 -184 -162 -215 -249 -282 -570 -167 -805 l27 -54 -22 -153
c-30 -208 -49 -338 -57 -371 -3 -17 -1 -27 6 -27 7 0 25 -11 42 -25 16 -14 38
-25 49 -25 11 0 22 -7 26 -15 7 -20 55 -45 86 -45 24 0 77 40 77 58 0 5 11 14
25 20 19 9 27 8 40 -4 8 -9 15 -20 15 -25 0 -17 40 -9 52 11 26 41 45 24 78
-72 17 -51 33 -111 36 -133 9 -78 10 -101 12 -157 l2 -58 256 0 256 0 -7 72
c-3 40 -7 91 -9 113 -10 122 -19 184 -27 180 -8 -6 -243 230 -339 340 -56 64
-106 137 -133 196 -9 20 -26 56 -37 80 -11 24 -18 35 -15 24 2 -11 7 -33 11
-48 6 -27 6 -27 -22 -15 -119 52 -237 209 -280 373 -29 113 -29 207 0 330 50
206 134 329 296 433 47 30 98 66 114 79 39 33 43 22 11 -32 -15 -26 -25 -48
-23 -51 3 -2 40 54 84 124 l79 127 6 -45 c5 -39 6 -35 7 28 1 39 1 72 -1 72
-2 0 -22 -33 -45 -73z m-534 -524 c-31 -70 -78 -116 -78 -76 0 23 48 83 66 83
9 0 14 -3 12 -7z m-80 -130 c-2 -10 -11 -19 -21 -21 -16 -3 -17 -1 -7 17 13
25 33 28 28 4z m703 -1161 c-6 -2 -31 8 -56 23 -36 21 -45 31 -45 54 0 15 3
30 6 34 3 3 28 -20 56 -51 27 -31 44 -58 39 -60z m-51 -7 c10 -13 9 -15 -11
-15 -22 0 -22 -1 9 -33 50 -52 41 -91 -10 -44 -19 18 -25 33 -24 65 1 44 14
54 36 27z m5 -213 c6 -19 4 -23 -10 -20 -20 3 -57 66 -48 81 7 12 49 -32 58
-61z m35 -42 c0 -5 -7 -10 -16 -10 -8 0 -12 5 -9 10 3 6 10 10 16 10 5 0 9 -4
9 -10z m-55 -121 c-6 -9 -11 -7 -22 6 -7 11 -13 26 -13 34 0 12 5 11 21 -6 13
-13 18 -26 14 -34z m-35 -49 c0 -5 -2 -10 -4 -10 -3 0 -8 5 -11 10 -3 6 -1 10
4 10 6 0 11 -4 11 -10z m-40 -41 c0 -6 -4 -7 -10 -4 -5 3 -10 11 -10 16 0 6 5
7 10 4 6 -3 10 -11 10 -16z"/>
<path d="M1355 2350 c10 -11 20 -20 23 -20 3 0 -3 9 -13 20 -10 11 -20 20 -23
20 -3 0 3 -9 13 -20z"/>
<path d="M666 2345 c-3 -9 0 -15 9 -15 8 0 15 7 15 15 0 8 -4 15 -9 15 -5 0
-11 -7 -15 -15z"/>
<path d="M1731 2314 c0 -11 3 -14 6 -6 3 7 2 16 -1 19 -3 4 -6 -2 -5 -13z"/>
<path d="M2001 2294 c0 -11 3 -14 6 -6 3 7 2 16 -1 19 -3 4 -6 -2 -5 -13z"/>
<path d="M1642 2200 c0 -14 2 -19 5 -12 2 6 2 18 0 25 -3 6 -5 1 -5 -13z"/>
<path d="M2275 2049 c-4 -6 -5 -12 -2 -15 2 -3 7 2 10 11 7 17 1 20 -8 4z"/>
<path d="M3160 2005 c0 -5 5 -17 10 -25 5 -8 10 -10 10 -5 0 6 -5 17 -10 25
-5 8 -10 11 -10 5z"/>
<path d="M3210 1962 c0 -24 -16 -38 -23 -20 -2 7 -2 4 0 -7 3 -11 8 -83 11
-160 l7 -140 5 170 c3 94 4 172 3 174 -2 2 -3 -5 -3 -17z"/>
<path d="M4126 1788 c-3 -24 -7 -126 -10 -228 l-4 -185 13 135 c8 74 19 150
25 168 7 19 9 36 6 39 -3 4 -6 -1 -6 -10 0 -9 -5 -17 -11 -17 -9 0 -7 53 7
118 2 12 0 22 -5 22 -5 0 -12 -19 -15 -42z"/>
<path d="M875 1739 c-16 -6 -17 -8 -3 -8 10 -1 18 -11 20 -28 3 -27 4 -27 9 5
6 38 2 43 -26 31z"/>
<path d="M4282 1730 c0 -14 2 -19 5 -12 2 6 2 18 0 25 -3 6 -5 1 -5 -13z"/>
<path d="M4272 1645 c0 -16 2 -22 5 -12 2 9 2 23 0 30 -3 6 -5 -1 -5 -18z"/>
<path d="M5663 1633 c-7 -2 -13 -11 -13 -20 0 -20 34 -12 38 10 3 17 -3 20
-25 10z"/>
<path d="M5871 1612 c0 -16 3 -21 6 -12 3 8 10 18 15 21 5 3 3 9 -6 12 -12 5
-16 0 -15 -21z"/>
<path d="M555 1570 c28 -51 31 -83 10 -123 l-14 -28 26 21 c35 28 43 26 93
-20 24 -22 45 -40 46 -40 1 0 -13 26 -32 57 -39 65 -42 94 -14 143 l21 35 -23
-26 c-13 -15 -36 -29 -53 -33 -25 -6 -33 -3 -57 26 l-28 33 25 -45z"/>
<path d="M4262 1585 c0 -16 2 -22 5 -12 2 9 2 23 0 30 -3 6 -5 -1 -5 -18z"/>
<path d="M5770 1579 c0 -35 -18 -57 -57 -70 -23 -7 -32 -14 -23 -17 26 -8 59
-44 53 -58 -8 -22 7 -16 29 11 11 14 34 32 52 40 18 8 24 14 14 14 -23 1 -48
39 -48 73 0 16 -4 28 -10 28 -5 0 -10 -9 -10 -21z m11 -102 c-20 -20 -21 -20
-40 -3 -21 19 -21 19 7 45 l27 26 13 -24 c12 -21 12 -26 -7 -44z"/>
<path d="M3213 1505 c0 -38 2 -53 4 -32 2 20 2 52 0 70 -2 17 -4 1 -4 -38z"/>
<path d="M4251 1524 c0 -11 3 -14 6 -6 3 7 2 16 -1 19 -3 4 -6 -2 -5 -13z"/>
<path d="M4241 1474 c0 -11 3 -14 6 -6 3 7 2 16 -1 19 -3 4 -6 -2 -5 -13z"/>
<path d="M3558 1453 c-23 -29 -50 -74 -45 -79 2 -2 18 18 35 46 32 52 36 63
10 33z"/>
<path d="M4217 1388 c-9 -35 -18 -99 -21 -143 l-5 -80 10 60 c6 33 17 96 24
139 8 44 13 81 11 83 -1 2 -10 -25 -19 -59z"/>
<path d="M3223 1340 c0 -30 2 -43 4 -27 2 15 2 39 0 55 -2 15 -4 2 -4 -28z"/>
<path d="M4103 1315 c0 -33 2 -45 4 -27 2 18 2 45 0 60 -2 15 -4 0 -4 -33z"/>
<path d="M3472 1295 c-17 -37 -14 -45 4 -12 9 16 14 31 11 33 -2 2 -9 -7 -15
-21z"/>
<path d="M2611 1254 c0 -11 3 -14 6 -6 3 7 2 16 -1 19 -3 4 -6 -2 -5 -13z"/>
<path d="M3419 1188 c-17 -35 -41 -74 -53 -88 l-21 -25 24 20 c21 18 98 155
86 155 -2 0 -19 -28 -36 -62z"/>
<path d="M3233 1180 c0 -36 2 -50 4 -32 2 17 2 47 0 65 -2 17 -4 3 -4 -33z"/>
<path d="M4092 1205 c0 -16 2 -22 5 -12 2 9 2 23 0 30 -3 6 -5 -1 -5 -18z"/>
<path d="M2622 1170 c0 -14 2 -19 5 -12 2 6 2 18 0 25 -3 6 -5 1 -5 -13z"/>
<path d="M4081 1143 c0 -12 -17 -52 -36 -90 -20 -37 -28 -59 -19 -48 27 33 66
124 61 143 -4 13 -5 12 -6 -5z"/>
<path d="M4182 1130 c0 -19 2 -27 5 -17 2 9 2 25 0 35 -3 9 -5 1 -5 -18z"/>
<path d="M2632 1100 c0 -14 2 -19 5 -12 2 6 2 18 0 25 -3 6 -5 1 -5 -13z"/>
<path d="M3240 1076 c0 -9 -7 -31 -15 -49 -12 -24 -12 -28 -2 -14 19 23 25 22
25 -5 3 -121 11 -291 15 -295 6 -6 -60 -118 -78 -133 -24 -20 -84 23 -127 89
-15 25 -28 38 -28 29 0 -9 -3 -24 -7 -34 -4 -12 -3 -15 6 -10 7 5 20 -3 32
-18 11 -14 40 -38 65 -52 38 -22 42 -28 34 -45 -12 -22 -23 -23 -51 -9 -10 6
-19 9 -19 7 0 -8 45 -34 70 -41 20 -6 22 -5 8 4 -16 10 -16 12 0 38 36 57 66
92 81 93 11 0 12 2 4 6 -10 4 -10 9 -1 26 12 21 13 20 19 -18 5 -30 6 -20 7
40 1 96 -22 392 -31 402 -4 3 -7 -1 -7 -11z"/>
<path d="M4172 1055 c0 -16 2 -22 5 -12 2 9 2 23 0 30 -3 6 -5 -1 -5 -18z"/>
<path d="M2642 1025 c0 -16 2 -22 5 -12 2 9 2 23 0 30 -3 6 -5 -1 -5 -18z"/>
<path d="M3030 1004 c0 -11 49 -84 56 -84 6 0 1 9 -33 59 -13 19 -23 30 -23
25z"/>
<path d="M2652 960 c-1 -14 3 -59 8 -100 6 -41 13 -122 16 -180 3 -58 8 -107
10 -109 2 -2 4 34 4 82 0 47 3 93 7 103 4 11 2 15 -4 11 -12 -7 -22 42 -24
113 -1 25 -5 59 -9 75 -7 27 -8 28 -8 5z"/>
<path d="M2787 973 c-3 -4 7 -17 22 -27 l26 -20 -20 25 c-11 13 -21 25 -21 27
-1 2 -4 0 -7 -5z"/>
<path d="M4162 945 c0 -16 2 -22 5 -12 2 9 2 23 0 30 -3 6 -5 -1 -5 -18z"/>
<path d="M3165 939 c-4 -6 -5 -12 -2 -15 2 -3 7 2 10 11 7 17 1 20 -8 4z"/>
<path d="M3153 880 c2 -8 0 -25 -4 -37 -11 -28 -3 -30 11 -3 8 15 8 25 0 38
-8 11 -10 12 -7 2z"/>
<path d="M3095 869 c-4 -6 -5 -12 -2 -15 2 -3 7 2 10 11 7 17 1 20 -8 4z"/>
<path d="M2935 838 c5 -19 2 -29 -12 -37 -17 -11 -17 -12 2 -9 23 4 33 44 15
62 -9 8 -10 4 -5 -16z"/>
<path d="M4153 810 c0 -30 2 -43 4 -27 2 15 2 39 0 55 -2 15 -4 2 -4 -28z"/>
<path d="M4143 670 c0 -25 2 -35 4 -22 2 12 2 32 0 45 -2 12 -4 2 -4 -23z"/>
<path d="M2942 680 c0 -14 2 -19 5 -12 2 6 2 18 0 25 -3 6 -5 1 -5 -13z"/>
<path d="M4056 681 c-10 -11 -17 -30 -16 -43 4 -42 0 -49 -57 -109 -31 -32
-52 -59 -47 -59 5 0 46 39 92 88 65 68 82 92 80 112 -4 31 -29 37 -52 11z m44
-10 c0 -10 -8 -29 -19 -42 l-18 -23 -8 23 c-5 15 -1 29 11 42 22 24 34 24 34
0z"/>
<path d="M2786 668 c-8 -33 -7 -58 3 -34 6 16 11 13 33 -25 15 -25 38 -51 52
-59 29 -15 32 -28 14 -53 -12 -15 -18 -13 -66 24 -47 36 -53 45 -48 68 6 25 6
25 -10 -4 -9 -16 -26 -40 -38 -53 l-21 -24 -7 24 c-5 16 -6 12 -3 -12 3 -19 8
-59 11 -87 4 -29 11 -53 17 -53 6 0 25 -11 44 -26 44 -34 42 -23 -6 23 -31 30
-40 48 -45 84 -4 40 -2 49 18 68 l24 23 56 -38 c31 -20 56 -39 56 -41 0 -2 -8
-16 -17 -30 -10 -15 -13 -24 -6 -20 6 4 24 27 40 52 15 25 35 45 45 45 9 0 28
14 42 30 25 30 26 31 58 15 30 -14 31 -14 13 0 -11 8 -25 22 -31 30 -10 13
-15 10 -35 -20 -23 -33 -69 -50 -69 -24 0 5 -4 8 -9 5 -8 -6 -80 58 -82 73 -6
51 -24 72 -33 39z"/>
<path d="M3856 587 c-16 -40 -51 -138 -78 -220 -39 -116 -49 -161 -50 -215 -1
-85 29 -152 66 -152 23 0 23 2 14 40 -22 87 38 287 98 326 34 23 123 24 137 2
18 -28 -8 -105 -61 -181 -56 -81 -87 -134 -97 -164 -6 -23 -5 -23 78 -23 80 0
84 1 95 25 20 43 26 152 12 209 -16 67 -5 103 41 134 27 19 43 23 76 19 58 -6
73 -21 73 -71 0 -50 -35 -109 -103 -175 -50 -48 -65 -87 -47 -121 10 -18 19
-21 72 -18 60 3 62 4 81 41 13 25 21 66 24 115 3 53 11 89 25 114 47 82 158
85 158 4 0 -37 -19 -67 -83 -131 -44 -44 -87 -110 -87 -135 0 -6 28 -10 68
-10 62 0 71 3 94 28 38 40 48 65 48 120 0 82 9 109 40 122 23 9 34 9 59 -4 45
-24 42 -61 -11 -126 -74 -89 -98 -123 -97 -134 0 -6 6 -3 12 8 7 10 36 46 65
80 69 81 86 116 71 150 -16 34 -65 50 -108 35 -30 -11 -34 -9 -65 27 -26 30
-40 38 -68 38 l-36 1 61 65 c34 36 75 73 90 83 18 10 27 24 25 34 -5 28 -36
28 -49 0 -11 -24 -123 -86 -134 -75 -10 10 23 78 56 115 22 26 28 38 19 47
-14 14 -44 -4 -48 -30 -8 -44 -117 -130 -152 -121 -35 9 -23 -43 13 -56 18 -7
111 24 186 63 24 12 45 19 47 17 8 -7 -92 -111 -135 -141 l-40 -28 -40 42 -41
43 -67 -7 c-88 -10 -100 -10 -150 2 -56 12 -134 -20 -185 -77 -33 -38 -37 -40
-43 -22 -8 26 35 162 48 154 15 -9 68 -6 79 5 5 5 -4 7 -22 4 -58 -8 -63 9
-29 105 17 47 29 87 27 89 -2 2 -17 -29 -32 -69z m682 -59 c-2 -6 -14 -18 -27
-26 -22 -15 -22 -15 -10 11 12 26 45 39 37 15z m-263 -87 c7 -12 -12 -24 -25
-16 -11 7 -4 25 10 25 5 0 11 -4 15 -9z"/>
<path d="M4156 629 c-14 -17 -34 -103 -36 -151 0 -4 -9 -12 -21 -18 -16 -9
-26 -8 -45 5 -13 8 -24 11 -24 5 0 -6 12 -15 26 -20 28 -11 66 3 114 40 24 19
24 19 3 13 -36 -9 -32 50 7 94 29 33 32 53 7 53 -7 0 -21 -10 -31 -21z"/>
<path d="M4313 643 c-7 -2 -13 -12 -13 -22 0 -9 -7 -27 -16 -39 -8 -12 -12
-22 -9 -22 3 0 -6 -17 -21 -37 -24 -35 -24 -36 -1 -9 13 15 38 39 53 52 16 13
21 21 12 18 -13 -4 -15 -1 -11 18 3 13 10 29 16 36 10 13 9 13 -10 5z"/>
<path d="M4357 640 c10 -11 9 -17 -4 -32 -9 -10 -11 -18 -5 -18 6 0 16 9 21
19 8 14 7 22 -7 32 -14 11 -15 11 -5 -1z"/>
<path d="M4225 534 c-18 -16 -22 -22 -9 -15 18 9 53 42 43 41 -2 -1 -17 -12
-34 -26z"/>
<path d="M3280 505 c-1 -27 -1 -60 -1 -72 1 -11 -15 -49 -36 -82 -30 -49 -42
-60 -58 -55 -14 4 -16 3 -6 -4 15 -11 8 -29 -37 -92 -27 -39 -1 -12 38 39 l25
33 40 -16 c50 -21 55 -29 55 -96 0 -43 -5 -61 -24 -85 l-24 -30 -71 38 c-39
21 -71 36 -71 33 0 -3 21 -17 48 -30 79 -41 89 -51 72 -72 -13 -16 -12 -16 12
1 15 11 28 25 28 31 0 6 9 19 21 30 l21 19 -3 -45 -4 -45 40 -3 40 -3 -32 21
c-30 20 -32 25 -37 103 -27 358 -34 426 -36 382z m8 -219 l-3 -35 -38 17 -38
17 38 49 38 49 3 -31 c2 -17 2 -47 0 -66z"/>
<path d="M4026 524 c-4 -14 -5 -28 -3 -31 3 -2 8 8 11 23 4 14 5 28 3 31 -3 2
-8 -8 -11 -23z"/>
<path d="M3111 326 c2 -2 15 -9 29 -15 24 -11 24 -11 6 3 -16 13 -49 24 -35
12z"/>
<path d="M2750 185 c7 -8 17 -15 22 -15 6 0 5 7 -2 15 -7 8 -17 15 -22 15 -6
0 -5 -7 2 -15z"/>
<path d="M3098 143 c-19 -23 -31 -43 -24 -43 2 0 14 14 26 30 23 33 22 40 -2
13z"/>
<path d="M2841 87 c-13 -21 -12 -21 5 -5 10 10 16 20 13 22 -3 3 -11 -5 -18
-17z"/>
<path d="M3044 68 c-43 -50 -58 -71 -47 -65 6 4 26 25 43 47 34 43 37 55 4 18z"/>
<path d="M2792 29 c-13 -16 -20 -29 -15 -28 4 0 18 13 31 30 13 16 20 29 15
28 -4 0 -18 -13 -31 -30z"/>
</g>
</svg>
